<svg xmlns="http://www.w3.org/2000/svg" viewBox="0 0 32 25">
  <g fill="#FFF">
    <path d="M7.203 16.124H3.255l-.57 1.734H.848l3.043-9.033H6.5l3.09 9.033H7.787l-.583-1.734zM6.8 14.86l-1.58-4.705-1.556 4.705H6.8zm12.074-6.035v9.033H15.93l-2.614-4.956c-.13-.247-.332-.68-.61-1.298l-.295-.648-.288-.648h-.067l.026.595.021.59.013 1.184v5.182H10.38V8.825h2.943l2.38 4.58c.25.488.494.98.73 1.475l.349.735.348.74h.061l-.02-.582-.02-.582-.013-1.165v-5.2h1.736zm1.608 9.033V8.825h4.498c1.055 0 1.773.167 2.156.5.382.333.573.96.573 1.882 0 1.117-.45 1.774-1.348 1.972v.034c1.046.158 1.569.875 1.569 2.15 0 .922-.201 1.569-.604 1.94-.402.37-1.103.555-2.104.555h-4.74zm1.737-5.241h2.125c.688 0 1.127-.075 1.317-.225.19-.15.285-.496.285-1.04 0-.723-.416-1.084-1.247-1.084h-2.48v2.349zm0 3.798h1.904l.61-.013c.585 0 .97-.081 1.156-.244.185-.163.278-.508.278-1.033 0-.547-.097-.891-.291-1.032-.195-.141-.674-.212-1.438-.212H22.22v2.534zm8.708-7.59v9.033H29.19V8.825h1.737zM12.484.356c.063.319.386 1.833.472 2.133a.949.949 0 00-.29 0 9.813 9.813 0 00-.144-.827 10.977 10.977 0 00-.425-.01c-.14 0-.281.007-.421.01-.116.165-.4.628-.502.827-.03-.006-.058-.012-.102-.012-.036 0-.074.006-.122.012.37-.519.733-1.042 1.09-1.57.16-.235.27-.388.383-.563h.06zM12.32.73h-.01l-.556.812c.247.012.494.012.741 0L12.321.73zm1.185 1.76a.676.676 0 00-.258 0 24.5 24.5 0 00.501-2.293c.035.006.067.012.122.012.048 0 .102-.006.147-.012-.048.162-.429 1.768-.512 2.292zm.864-.559a.345.345 0 01-.23-.343c0-.288.242-.58.7-.58.104 0 .149.013.242.037a.551.551 0 00.163.016c.077 0 .233-.01.316-.013 0 .019-.006.04-.006.065s.006.046.006.065a14.38 14.38 0 00-.304-.016.36.36 0 01.09.252.575.575 0 01-.307.5.936.936 0 01-.431.085c-.07 0-.137-.003-.185-.006-.035.021-.131.073-.131.168 0 .123.134.126.236.126.361.003.476.003.594.07.118.068.14.19.14.267 0 .236-.21.665-.823.665-.15 0-.297-.024-.403-.107a.377.377 0 01-.147-.291.43.43 0 01.21-.353.83.83 0 01.167-.076l.003-.022c-.048-.012-.175-.049-.175-.177 0-.19.178-.267.275-.31v-.022zm.105 1.266c.383 0 .572-.26.572-.478 0-.239-.262-.248-.435-.248-.083 0-.24.006-.351.076a.378.378 0 00-.179.329c0 .23.188.321.393.321zm.204-1.287c.31 0 .425-.334.425-.521 0-.178-.109-.292-.281-.292-.323 0-.438.328-.438.506 0 .233.16.307.294.307zm2.113.472a1.065 1.065 0 01-.52.135c-.276 0-.637-.144-.637-.632 0-.48.332-.873.821-.873.303 0 .572.131.572.502 0 .114-.022.197-.035.249a15.683 15.683 0 00-1.092-.01.984.984 0 00-.017.178c0 .399.285.475.464.475.246 0 .402-.11.476-.162h.01l-.042.138zm-.87-.75c.132.008.304.011.435.011.125 0 .307 0 .425-.012a.631.631 0 00.02-.165c0-.273-.18-.365-.346-.365-.172 0-.437.107-.533.53zm1.78-.366h.007c.073-.073.236-.245.524-.245.307 0 .364.19.393.297.099-.12.265-.297.559-.297.278 0 .415.172.415.325 0 .064-.022.168-.048.285l-.121.558c-.039.174-.045.251-.052.3a.731.731 0 00-.262 0c.055-.15.25-.892.25-1.054 0-.172-.122-.27-.291-.27a.48.48 0 00-.457.349c-.051.165-.166.739-.204.975a.8.8 0 00-.122-.013.98.98 0 00-.137.013c.07-.212.243-.892.243-1.08 0-.18-.156-.244-.284-.244a.478.478 0 00-.457.355 9.445 9.445 0 00-.199.969.763.763 0 00-.128-.013.804.804 0 00-.127.013c.105-.353.275-1.113.32-1.453a.578.578 0 00.242 0l-.063.23zm3.35 1.116a1.065 1.065 0 01-.52.135c-.276 0-.637-.144-.637-.632 0-.48.332-.873.821-.873.303 0 .572.131.572.502 0 .114-.022.197-.035.249a15.728 15.728 0 00-1.092-.01.975.975 0 00-.017.178c0 .399.285.475.463.475.246 0 .403-.11.476-.162h.01l-.041.138zm-.87-.75c.132.008.304.011.435.011.125 0 .307 0 .425-.012a.631.631 0 00.019-.165c0-.273-.179-.365-.345-.365-.172 0-.437.107-.533.53zm2.467.75a1.064 1.064 0 01-.52.135c-.275 0-.636-.144-.636-.632 0-.48.332-.873.82-.873.304 0 .573.131.573.502 0 .114-.023.197-.035.249a15.708 15.708 0 00-1.093-.01.993.993 0 00-.016.178c0 .399.284.475.463.475.246 0 .402-.11.476-.162h.01l-.042.138zm-.868-.75c.144.008.29.012.434.011.124 0 .307 0 .425-.012a.631.631 0 00.019-.165c0-.273-.179-.365-.345-.365-.173 0-.438.107-.533.53zm1.793-.369l.013.006a.718.718 0 01.527-.248c.226 0 .447.122.447.368 0 .08-.007.11-.074.386a9.148 9.148 0 00-.144.714.72.72 0 00-.262 0c.049-.138.24-.84.24-1.051 0-.184-.156-.273-.316-.273a.489.489 0 00-.463.328c-.074.212-.205.898-.22.996a.649.649 0 00-.247 0c.087-.282.281-1.204.323-1.452a.62.62 0 00.237 0l-.061.226zm2.78-.9c.185.318 1.064 1.544 1.22 1.719.054-.193.268-1.18.329-1.692a.61.61 0 00.112.012c.041 0 .064-.007.096-.012-.118.392-.448 1.848-.483 2.133h-.044c-.1-.169-1.09-1.548-1.22-1.708-.093.362-.314 1.392-.336 1.674a.568.568 0 00-.109-.012.673.673 0 00-.111.012c.147-.42.46-1.855.507-2.127h.039zm2.965 1.918l-.012-.012a.715.715 0 01-.544.254c-.21 0-.447-.126-.447-.353 0-.076.042-.236.1-.484a7.94 7.94 0 00.124-.65.91.91 0 00.278 0c-.086.307-.25.877-.25 1.046 0 .19.116.294.31.294a.503.503 0 00.477-.356c.08-.23.2-.928.21-.983.045.005.087.011.128.011a.86.86 0 00.131-.011c-.064.202-.28 1.081-.323 1.452-.038-.006-.073-.012-.115-.012a.731.731 0 00-.124.012l.057-.208zm1.35-1.628c-.041.141-.073.282-.105.423.099 0 .22-.009.332-.012a.433.433 0 00-.019.126c-.112-.003-.243-.012-.34-.012l-.124.576c-.028.132-.073.33-.073.429 0 .162.134.223.226.223a.431.431 0 00.212-.06l-.006.079a.584.584 0 01-.327.095c-.165 0-.341-.098-.341-.288 0-.08.022-.172.044-.273.092-.42.109-.466.173-.782-.061 0-.14.003-.21.006a.289.289 0 00.018-.12c.067.004.15.013.205.013l.057-.325.278-.098zM5.341 4.8c.37.034.479.255.479.414 0 .224-.15.466-.412.592-.21.101-.457.11-.575.11-.064 0-.345-.012-.403-.012a.9.9 0 00-.143.012c.162-.591.373-1.56.462-2.1.046.004.116.013.17.013.121 0 .268-.012.415-.012.176 0 .297.021.393.07a.358.358 0 01.198.316c0 .306-.32.53-.578.576l-.006.021zm-.17.059a1.68 1.68 0 00-.22-.013c-.057 0-.124 0-.178.003-.07.314-.135.628-.192.944.08.016.156.016.205.016.105 0 .27-.01.409-.065a.602.602 0 00.36-.527c0-.218-.172-.331-.383-.358zm.112-.941a3.03 3.03 0 00-.29.012c-.109.429-.147.588-.195.812.048.006.095.01.166.01.112 0 .303-.01.447-.093a.498.498 0 00.256-.426c0-.226-.166-.315-.384-.315zm2.033 1.89a1.063 1.063 0 01-.521.136c-.275 0-.635-.144-.635-.632 0-.481.332-.873.82-.873.304 0 .573.131.573.502 0 .114-.023.196-.036.248a15.706 15.706 0 00-1.092-.01c-.01.06-.016.12-.016.179 0 .398.284.475.463.475.246 0 .403-.11.476-.162h.01l-.042.138zm-.87-.75c.132.009.304.012.435.012.125 0 .307 0 .426-.012a.633.633 0 00.018-.166c0-.273-.178-.365-.345-.365-.172 0-.437.108-.533.53zm2.2-.622c.505 0 .68.288.68.597 0 .45-.355.913-.904.913-.527 0-.668-.352-.668-.616a.89.89 0 01.891-.894zm-.234 1.413c.483 0 .662-.567.662-.87 0-.255-.15-.445-.426-.445-.463 0-.641.53-.641.87 0 .258.118.445.405.445zm1.455-.49c-.051-.022-.23-.096-.23-.344 0-.288.242-.58.7-.58.104 0 .15.013.242.037a.554.554 0 00.163.016c.077 0 .233-.01.316-.013 0 .019-.006.04-.006.065 0 .024.006.046.006.064a13.053 13.053 0 00-.303-.015.36.36 0 01.09.251.575.575 0 01-.307.5.938.938 0 01-.432.085c-.07 0-.137-.003-.185-.006-.035.022-.13.074-.13.169 0 .123.133.126.235.126.362.003.477.003.595.07.118.068.14.19.14.267 0 .236-.21.665-.824.665-.15 0-.297-.024-.402-.108a.376.376 0 01-.148-.29c0-.144.09-.28.211-.353.07-.043.132-.064.167-.077l.003-.021c-.048-.012-.176-.05-.176-.178 0-.19.18-.267.275-.31v-.02zm.105 1.265c.383 0 .572-.26.572-.478 0-.239-.262-.248-.435-.248-.083 0-.24.006-.35.076a.379.379 0 00-.18.328c0 .23.189.322.393.322zm.204-1.288c.31 0 .425-.334.425-.52 0-.178-.109-.292-.281-.292-.323 0-.437.328-.437.506 0 .233.159.306.293.306zm2.113.473a1.063 1.063 0 01-.521.135c-.275 0-.636-.144-.636-.632 0-.481.333-.873.821-.873.304 0 .572.131.572.502 0 .114-.022.196-.035.248a15.755 15.755 0 00-1.093-.01c-.01.06-.015.12-.016.179 0 .398.285.475.464.475.246 0 .402-.11.476-.162h.01l-.042.138zm-.869-.751c.145.008.29.012.435.012.124 0 .306 0 .424-.012a.618.618 0 00.02-.166c0-.273-.18-.365-.346-.365-.172 0-.437.108-.533.53zm1.793-.368l.012.006a.72.72 0 01.527-.248c.227 0 .447.122.447.367 0 .08-.006.111-.073.387a9.038 9.038 0 00-.143.714.73.73 0 00-.262 0c.047-.138.239-.84.239-1.051 0-.184-.157-.273-.316-.273a.489.489 0 00-.463.328c-.074.211-.205.898-.22.995a.655.655 0 00-.247 0c.087-.281.281-1.204.323-1.452a.592.592 0 00.236 0l-.06.227zm2.466.953c-.105.129-.255.313-.568.313-.387 0-.575-.282-.575-.598 0-.386.272-.917.834-.917.341 0 .437.206.482.304h.013c.076-.386.166-.788.22-1.122a.732.732 0 00.253 0c-.186.727-.253 1.064-.39 1.71-.041.193-.078.388-.109.582-.028-.005-.054-.012-.109-.012-.054 0-.086.007-.12.012l.07-.272zm-.501.193c.482 0 .62-.6.62-.867 0-.123-.042-.417-.39-.417-.498 0-.616.588-.616.824 0 .298.14.46.386.46zm2.32-.027a1.06 1.06 0 01-.52.135c-.275 0-.637-.144-.637-.632 0-.481.333-.873.822-.873.303 0 .571.131.571.502 0 .114-.022.196-.035.248a15.706 15.706 0 00-1.092-.01c-.01.06-.016.12-.016.179 0 .398.284.475.463.475.246 0 .403-.11.476-.162h.01l-.042.138zm-.87-.751c.132.009.304.012.435.012.125 0 .307 0 .425-.012a.618.618 0 00.02-.166c0-.273-.18-.365-.345-.365-.173 0-.438.108-.534.53zm2.698-1.242a.984.984 0 00.138.013.935.935 0 00.147-.013 25.546 25.546 0 00-.467 2.1.911.911 0 00-.284 0c.163-.592.374-1.56.466-2.1zm.873.874l.012.006a.719.719 0 01.528-.248c.227 0 .447.122.447.367 0 .08-.007.111-.074.387-.035.144-.13.585-.144.714a.72.72 0 00-.262 0c.048-.138.24-.84.24-1.051 0-.184-.157-.273-.316-.273a.488.488 0 00-.463.328c-.074.211-.205.898-.22.995a.655.655 0 00-.246 0c.086-.281.28-1.204.322-1.452a.592.592 0 00.237 0l-.061.227zm2.204.018c-.031-.113-.14-.18-.261-.18a.299.299 0 00-.304.29c0 .15.131.21.275.27.134.059.288.126.288.325 0 .282-.288.537-.659.537a.646.646 0 01-.345-.089c.04-.065.075-.134.102-.205h.023c.048.122.175.183.316.183.243 0 .348-.18.348-.316 0-.134-.086-.174-.255-.25-.137-.062-.291-.133-.291-.353 0-.209.157-.494.584-.494.115 0 .19.018.292.061-.065.138-.074.181-.083.221h-.03zm.982-.628c-.042.14-.074.282-.106.423.1 0 .22-.01.332-.012a.435.435 0 00-.018.126c-.112-.004-.243-.013-.339-.013l-.125.576c-.029.132-.073.332-.073.43 0 .162.134.223.227.223a.429.429 0 00.21-.06l-.006.079a.584.584 0 01-.326.095c-.166 0-.342-.098-.342-.288 0-.08.023-.172.045-.273.093-.42.109-.466.173-.782a5.41 5.41 0 00-.211.006.292.292 0 00.019-.12c.067.004.15.013.204.013l.058-.325.278-.098zm1.454 1.729a1.062 1.062 0 01-.52.135c-.276 0-.637-.144-.637-.632 0-.481.333-.873.822-.873.303 0 .571.131.571.502 0 .114-.022.196-.035.248a15.734 15.734 0 00-1.093-.01c-.006.041-.016.1-.016.179 0 .398.285.475.464.475.246 0 .402-.11.476-.162h.01l-.042.138zm-.869-.751c.145.008.29.012.434.012.125 0 .307 0 .425-.012a.618.618 0 00.02-.166c0-.273-.18-.365-.345-.365-.173 0-.439.108-.534.53zm1.55.858a.687.687 0 00-.26 0c.21-.739.435-1.845.503-2.293.034.006.066.012.121.012.048 0 .102-.006.147-.012-.048.163-.428 1.769-.511 2.293zm.77 0a.687.687 0 00-.259 0c.208-.739.435-1.845.502-2.293.035.006.067.012.121.012.048 0 .103-.006.148-.012-.049.163-.429 1.769-.512 2.293zm.78 0a1.242 1.242 0 00-.147-.012.673.673 0 00-.125.012c.14-.435.313-1.337.33-1.453.047.006.088.012.133.012a.816.816 0 00.131-.012c-.06.202-.28 1.088-.322 1.453zm.3-2.084a.15.15 0 01.153.147c0 .04-.017.077-.045.105a.152.152 0 01-.108.042.15.15 0 01-.153-.147.15.15 0 01.153-.147zm.704.858l.012.006a.718.718 0 01.527-.248c.227 0 .447.122.447.367 0 .08-.006.111-.073.387a9.032 9.032 0 00-.144.714.729.729 0 00-.262 0c.048-.138.24-.84.24-1.051 0-.184-.157-.273-.317-.273a.488.488 0 00-.462.328c-.074.211-.205.898-.22.995a.655.655 0 00-.247 0c.087-.281.281-1.204.323-1.452a.59.59 0 00.236 0l-.06.227zm1.626.668a.345.345 0 01-.23-.343c0-.288.243-.58.7-.58.105 0 .15.013.242.037a.556.556 0 00.163.016c.077 0 .234-.01.316-.013 0 .019-.006.04-.006.065 0 .024.006.046.006.064a13.044 13.044 0 00-.303-.015.361.361 0 01.089.251.575.575 0 01-.307.5.935.935 0 01-.43.085c-.071 0-.139-.003-.186-.006-.035.022-.131.074-.131.169 0 .123.134.126.236.126.362.003.476.003.594.07.119.068.141.19.141.267 0 .236-.21.665-.824.665-.15 0-.297-.024-.403-.108a.375.375 0 01-.147-.29c0-.144.09-.28.21-.353a.837.837 0 01.167-.077l.003-.021c-.048-.012-.175-.05-.175-.178 0-.19.178-.267.274-.31v-.02zm.105 1.266c.384 0 .572-.26.572-.478 0-.239-.262-.248-.434-.248-.083 0-.24.006-.352.076a.38.38 0 00-.179.328c0 .23.19.322.393.322zm.205-1.288c.31 0 .425-.334.425-.52 0-.178-.109-.292-.281-.292-.323 0-.438.328-.438.506 0 .233.16.306.294.306zM.623 21.851a.58.58 0 01-.582-.574v-.107a.58.58 0 01.582-.574H31.27a.58.58 0 01.582.574v.107a.58.58 0 01-.582.574H.623zM185.61-107.17l-44.44 132.5-44.04-132.5H61.89L29 82.81h35.26L85.12-37.18l40 119.99h31.87l40.36-119.99 20.37 119.99h34.97l-31.87-189.98z"/>
  </g>
</svg>
