<svg xmlns="http://www.w3.org/2000/svg" viewBox="0 0 66 25">
  <path d="M32.998 13.832v2.798c-.797.616-2.724 1.324-4.848 1.324-3.255 0-6.378-2.178-6.378-5.97 0-3.7 3.17-6.062 6.332-6.062 1.98 0 3.017.657 3.721.657.376 0 .612-.424.657-.564h.281c0 1.32.141 2.886.283 3.692l-.329.047c-.657-2.086-2.822-3.081-4.472-3.035-2.689.048-4.15 2.419-4.15 5.075 0 2.89 1.603 5.311 4.245 5.311.943 0 2.216-.239 2.641-.76v-2.514c0-1.42-.756-1.753-1.322-1.753v-.33h4.7v.33c-.562.001-1.36.334-1.36 1.754zM18.275 9.66V18h-.466L9.777 8.285c.046.14.094.379.094.76v5.877c0 2.04.473 2.608 1.51 2.608v.33H7.363v-.33c1.09 0 1.565-.567 1.565-2.608V7.858c0-.996-.853-1.514-1.85-1.514v-.33h3.454l6.856 8.15c-.045-.334-.045-.428-.045-.711V9.659c0-1.422 0-3.315-1.467-3.315v-.33h3.8v.33c-1.446 0-1.401 1.893-1.401 3.316zM3.58 8.05v7.49c0 .665-.14 1.992 1.32 1.992v.33H.232v-.33c1.462 0 1.322-1.326 1.322-1.991V8.049c0-1.423-.803-1.704-1.369-1.704v-.33h4.808v.33c-.611 0-1.413.281-1.413 1.704zm47.71-2.103c.095 0 0-.14 0-.187-.19-.28-.331-.797-.378-.797-.14-.048-.237 0-.424-.095-.095-.095-.378-.237-.474-.286-.046 0-.188-.048-.377-.095h-.235c.046.143.188.286.235.38 0 .048 0 .191.047.284.094 0 .237.048.33.094.047 0 .331.046.425.14.095 0 .425.375.473.421.14.094.283.187.378.14zm13.484 5.592a.518.518 0 00-.336-.144c0-.14-.049-.33 0-.52.097 0 .287.048.287 0 0-.283-.048-.565-.095-.706a3.414 3.414 0 00-.385-.142.87.87 0 00-.095-.377c.143-.046.24-.046.336-.046 0 0-.097-.427-.144-.618-.097-.046-.239-.046-.336-.046-.048-.086-.096-.172-.144-.305.097-.048.193-.048.29-.096a2.526 2.526 0 00-.241-.488h-.33c-.049-.1-.095-.192-.095-.285.046-.045.14-.09.188-.138a1.055 1.055 0 00-.235-.371c-.095 0-.189.046-.283 0-.047 0-.19-.187-.14-.187.046-.094.14-.14.186-.187-.14-.186-.187-.328-.33-.42-.093 0-.189 0-.282.046 0 0-.094-.14-.142-.187-.14 0 .097-.234.097-.234a4.747 4.747 0 00-.472-.514c-.095 0-.19.094-.236.094 0 0-.188-.14-.188-.188 0-.094.188-.14.188-.14s-.331-.376-.565-.519c-.095.048-.142.048-.237.048a1.428 1.428 0 00-.33-.237s.142-.096.142-.143c-.237-.142-.33-.238-.518-.38-.19-.096-.284-.238-.378-.38-.334-.518-.763-1.273-1.805-1.415 0 0 .237.332.379.567 0 .048 0 .048-.19.048h-.332c-.095-.141-.142-.19-.19-.283-.094-.19-.14-.236-.236-.332-.188-.14-1.132.379-1.877.567.19.236.366.378.406.473.197.235.528.66.763.993.048-.048.095-.096.19-.142.612-.096.612-.238.612-.238s-.471-.377-.141-.377c0 0 .236.048.33-.048.237-.046.522-.095.664 0 .189.141.283.33.425.473-.096 0-.19-.047-.285-.047-.283-.047-.568 0-.805.047 0 0 .379.334.474.476-.095-.047-.379 0-.379 0-.141.047-.33.095-.378.095-.142.047-.283 0-.377.047.189.095 1.039.428 1.464.428.38 0 .617-.047.952-.19.048-.048.144-.095.192-.048.189.048.282.095.377.19 1.225.75 2.591 2.526 3.014 3.48.424.875.66 1.867.66 2.81.048 1.287-.376 2.51-1.225 3.596-.47.616-1.365 1.146-2.308 1.243.281.338.424.87.565 1.342 0 0 .33-.046.519-.135 0-.387-.235-.82-.235-.917 0 0 .281-.194.518-.194.047.146.187.386.376.724.189-.097.33-.193.472-.337 0-.24-.142-.532-.237-.822.33-.144.519-.192.519-.192.095.144.33.29.375.435 0 0 .237-.243.33-.484-.093-.188-.235-.333-.33-.522l.378-.424s.235.189.33.284c.144-.19.29-.378.336-.613-.24-.237-.336-.237-.384-.377.097-.14.145-.33.241-.471.143.047.24.14.336.188.097-.188.193-.47.193-.659-.097-.094-.241-.14-.337-.235l.097-.472s.24.048.335.048c.052-.292.052-.579.052-.77zm-15.09-8.613c.048-.141-.047-.283-.047-.425-.094-.33-.235-.66-.282-1.039v-.188c-.19-.094-.377-.14-.613-.236 0 0 0 .283.095.424.094.237.236.614.236.803 0 .141.046.283.094.425.235.141.517.236.517.236zm1.134 1.799c0-.38-.142-.666-.237-.857 0-.046-.047-.093-.14-.14-.142-.142-.283-.284-.33-.284-.142-.142-.237-.283-.378-.425-.142 0-.235.141-.33.19-.047.093-.236.188-.142.235.047.094.142.094.237.14.093.096.187.142.33.237.188.19.283.427.52.617.093.048.14.095.187.095.046 0 .236.144.283.192zm7.804 9.512c0-.048 0-.426-.095-.426-.048-.046-.095-.187-.142-.235-.047.14 0 .235 0 .377 0 .093-.19.187-.143.236.143.048.237.377.333.47.14.189.092-.33.047-.422zM48.694.849c-.425-.283-.897-.566-1.368-.755-.283.235-.472.425-.613.425-.141 0-.047-.283-.047-.473-.142 0-.236 0-.378-.046-.095.33-.141.754-.377.85-.095.046-.141.046-.189.046V.52c0-.048.189-.378.141-.425 0 0-.424.094-.518.141-.048.047-.33.189-.378.189 0 0-.141-.048-.188-.048C44.637.283 44.54.283 44.4.19c-.189.566-.235.707-.235.613 0 0-.661-.425-.897-.708-.613.094-.613.189-1.133.376-.188.19-.47.425-.659.708-.094.19-.19.282-.283.473l.471.188c.047-.046.283-.378.33-.472.331-.19.897-.518 1.086-.707.046.094.613.425.85.566.188.141.377.189.566.283.095-.14.188-.283.282-.613.142.095.33.095.472.141 0 .189 0 .378.047.566 0 .095.094.049.284-.046.282-.096.566-.141.707-.189.33-.19.519-.566.803-.566.235 0 .66.141.754.235.142.048.237.095.377.095.189 0 .33-.189.471-.283zm6.243 8.278c0-.143-.048-.319-.19-.405a4.51 4.51 0 01-1.231.171c-.474 0-.947-.085-1.609-.357-.048.096 0 .272 0 .272.284.224.284.085.52.319.096.094.142.284.19.615.047.189.142.237.237.52.141-.095.377-.048.377-.048 0-.235-.141-.472-.141-.518l-.237-.475c.046 0 .19.19.426.19.047 0 .188.047.283 0 0 0 .142.096.142.19.095.142.095.238.142.378.095 0 .141 0 .19-.047.189 0 .283-.048.283-.048-.047-.095-.095-.188-.095-.282a5.825 5.825 0 01-.142-.332l.855-.143zm-3.126-.639s-.094-.585-.19-1.232c-.094-.561-.141-.75-.285-.982a.433.433 0 01-.237.046 1.93 1.93 0 00-.236.094c.095.375.236.842.284 1.398 0 .138-.048.288 0 .438l.664.238zm8.05 5.464c0-2.413-.86-4.445-1.903-5.56-.613-.628-1.274-.996-1.89-.996-.556 0-.988.415-.988.853 0 1.683.67 2.767 1.068 3.72.119.238.159.429.159.664.047.612-.413 1.74-.748 2.356-.047-.049-.287-.095-.479-.095-.475 0-.663.33-.76.616-.142 0-.237-.096-.379-.096-.567-.047-1.04.481-1.04 1.06 0 .628.141.958.378 1.36h.473c-.047-.134-.19-.828-.236-1.02a.675.675 0 01.19-.63c.187-.289.662-.192.662-.192-.142.24-.332.628-.332 1.014.047.241.095.606.237.828h.379c.096-.266 0-.491 0-.73 0-.147 0-.29.048-.436 0-.097.237.192.237.192s.19-.24.19-.433c0-.146-.285-.099-.333-.243-.047-.144.095-.481.095-.481.286-.193.526-.146.622-.146.142 0 .192.048.382.048.137 0 .176-.285.176-.428.04.047.158.143.198.143.134.048.181.048.322.094.19.097.378.191.566.384v-.049c-.046-.192.049-.43-.092-.526 0 0-.238-.189-.425-.284-.095-.094-.236-.094-.283-.188-.047-.049-.047-.095-.047-.187 0-.097.047-.237.094-.237.095-.046.142 0 .33.095.19.095.378.235.52.33 0 0 .046.095.046.048.19-.097.19-.142.19-.426-.19-.235 0-.281-.283-.47-.095 0-.614-.189-.614-.189 0-.093.141-.327.141-.327.048-.048.142-.048.19.046.283.189.471.189.754.281.047-.14.047-.235-.046-.327-.095-.14-.237-.283-.331-.33-.19-.047-.283-.094-.425-.14 0-.142-.047-.284-.094-.473 0-.094.094-.046.189-.046.187-.047.99.235.99.235 0-.189-.047-.33-.14-.426-.095-.096-.19-.192-.426-.287-.33-.095-.612-.048-.85-.192-.188-.19-.235-.238-.275-.43.134-.046.37-.094.512-.094.235 0 .376-.047.66.047.095.047.425.334.567.334 0 0-.095-.381-.19-.522-.14 0-.377-.283-.47-.33-.474-.188-.567-.095-.85-.047-.142.047-.269 0-.388 0-.04-.096.08-.237.04-.332 0-.046-.16-.094-.16-.187 0 0 .695-.095.979-.047.095.047.377.235.471.235 0 0 .095-.33-.046-.612-.238-.047-.472 0-.661-.047-.19-.048-.377 0-.504 0-.119 0-.237-.048-.381-.048a.756.756 0 01-.143-.427s1.122-.046 1.217-.094c-.048-.048-.141-.095-.19-.19-.188-.305-.33-.354-.543-.354-.118 0-.437.139-.629.096 0-.383.192-.731.47-.731.514 0 1.079.252 1.55.773 1.183 1.209 1.8 3.533 1.8 5.181 0 .754-.095 1.465-.19 2.04.143.049.238.049.382.049.144-.577.29-1.334.29-2.04zM49.4 6.132s-.14-.608-.235-.889c-.047-.188-.142-.282-.236-.425a.363.363 0 00-.094.19c-.095.141-.238.235-.142.375.047.188.047.375.189.515.141.142.33.094.519.234zm5.346 4.602c-.048-.142-.191-.188-.285-.283 0 0-.616-.236-.711-.236-.095.047.237.236.284.33.19.189.665.613.665.613l.047-.424zM50.58 7.719c0-.139-.047-.232-.093-.37-.049-.233-.142-.374-.19-.514 0-.14 0-.234-.047-.327-.047 0-.094 0-.14-.047-.142 0-.333-.046-.333-.046 0 .14.049.374.049.514 0 .047.188.468.235.514a.363.363 0 00.19.184c.14-.001.236.092.33.092zm7.85 7.602c0-.049-.141-.143-.19-.143 0-.048-.046-.237-.095-.283-.094-.048-.094-.095-.19-.095 0 .047 0 .095-.047.189 0 .095-.094.14-.047.235.047.097.095.097.19.144.047.046.19.43.237.48.048-.05.048-.337.143-.527zm-3.303-3.161c.047-.144-.048-.432-.097-.527-.142 0-.237-.095-.332-.095-.096 0-.143-.238-.284-.19.046.095.141.572.188.668.048.048.238.383.238.712.19-.142.239-.424.287-.568zm5.108 5.453c.095-.044 0-.134 0-.179-.047 0-.236-.426-.376-.618 0 0-.048.142-.097.239-.096.242-.144.335-.144.47.144.09.193.045.381.045.093-.001.19.043.236.043zm-8.33-7.823s-.57-.33-.664-.474c-.142 0-.142 0-.283.142-.095 0-.141.048-.189.143.142.094.189.14.33.237.048.046.095.046.237 0h.38c.094 0 .19.046.19-.048zm-1.135-.852c.094-.129-.095-.129-.143-.172-.047-.086-.14-.278-.188-.325a1.002 1.002 0 00-.141-.239c-.047-.052-.236 0-.33 0-.095 0-.141 0-.236.048.095.095.19.431.236.431.046.086.046.129.141.172.236.041.424-.001.661.085zm3.454 3.553a.547.547 0 00-.142-.379 1.837 1.837 0 01-.095-.431 8.403 8.403 0 00-.332-.523c-.095-.094-.095-.33-.141-.47l-.567.093c.282.377.518.758.662 1.14.046.143.473 1.56.473 1.56.142-.047-.047-.753 0-.799.047-.096.047-.142.142-.19zm-1.845-1.663c0-.424-.095-.424-.284-.613 0 0-.141.283-.237.425.19.19.237.425.237.425.19-.19.19-.143.284-.237zm6.666 6.696c0-.045 0-.136-.094-.18h-.237c-.093-.048-.14-.048-.188 0-.142.136-.142.358-.237.492h.567c.095-.09.19-.134.19-.312zm-6.098-5.508v-.143s-.095-.192-.095-.239c-.048-.095-.095-.239-.236-.286 0-.047-.048.19-.095.286-.049.095-.049.047-.141.24.093.142.14.238.237.381 0 .049.14.236.14.236s.19-.379.19-.475zm-3.829-5.04c-.756-.375-1.322-.516-1.793-.516 0-.046-.095-.093 0-.14.086-.053.165-.116.237-.188.141-.186.235-.374.283-.56.14-.282.282-.189.376-.801-.14 0-.188.095-.33.142.046-.142.095-.285.095-.427.047-.286.141-.476.141-.807.141-.047.378-.188.425-.378 0-.046 0-.187.046-.376 0-.283.048-.519-.046-.708 0-.048-.331-.519-.566-.66-.331-.141-.472-.096-.708-.048-.282 0-.66.284-.66.802-.283 0-.85.048-1.18.331a2.718 2.718 0 00-.756-.236h-.424a.899.899 0 00-.33-.52c-.236-.14-.519-.33-.85-.33-.141 0-.283-.047-.425.047-.141.095-.377.19-.425.378-.094.236-.187.424-.187.66 0 .236.14.424.283.66.047.094.094.094.188.14a.81.81 0 01.283.142c.047.048-.047.19-.047.473 0 .237 0 .237.047.429 0 .19.047.38.095.522-.141 0-.236-.142-.33-.046 0 .094.094.329.188.515.235.235.471.469.613.75 0 .047 0 .14.047.14-.33.046-.66.046-.99.14-.308.105-.607.23-.897.374 0 .187.047.327.047.327.048 0 .473-.234.85-.327.614-.186.944-.14.944-.14.047.094.094.234.047.28-.572.234-1.124.513-1.651.835.046.093 0 .243.094.344a10.533 10.533 0 011.604-.805c.19-.046.19 0 .283 0 .047.046.141.23.235.23.142 0 .284-.139.425-.184.283-.092.52-.186.802-.234.095-.046.095-.14.095-.234.048-.093.048-.093.048-.234 0-.046-.189-.094-.284-.28-.095-.14 0-.281-.046-.281-.142.094-.331.188-.378 0-.047-.14-.047-.327.095-.375.47-.186.993-.186 1.462 0 .095 0 .142.094.142.188.046.094 0 .187-.095.28-.141.047-.283-.14-.283 0 0 .141-.094.328-.33.422-.046.046 0 .187.047.327 0 .046 0 .14.048.14.189.046.471.094.613.188.188.092.518.369.566.323.141-.093.19-.231.283-.323.52.23.944.369 1.603.8.095 0 .095-.2.095-.294-.343-.19-.688-.375-1.037-.553-.19-.047-.283-.14-.474-.187v-.375c.331.094.991.14 1.652.515.048-.137.142-.231.095-.278zm1.132 2.388c-.19-.095-.424-.19-.613-.285a2.02 2.02 0 01-.471-.314c-.094 0-.142.043-.19.043-.094.043-.14.085-.235.129.141.19.282.332.425.474.046.096.19.096.282.096h.473c.14-.049.235-.049.33-.143zm.802 1.181c.095 0 .095-.19 0-.19-.33-.094-.613-.187-.802-.47-.047.047-.33.14-.424.236 0 0 .094.235.33.471.14.142.424.048.66-.046l.236-.001zm6.762 6.703h-.282a.36.36 0 00-.33.231.715.715 0 01-.19.311c.049.045.141.045.19.045h.471c.047-.045.047-.178.095-.266 0-.09.046-.18.046-.32zm-4.349-3.955c-.046-.095-.094-.236-.14-.33 0-.047 0-.142-.048-.282 0 0-.331.235-.379.282.19.235.095.376.143.564 0 .095.188.142.236.282 0 .048-.095.472-.095.472.283-.377.283-.848.283-.988zm3.5 3.183c-.282-.532-.779-.678-1.025-.678-.238 0-.526.292-.718 1.21-.048.336-.096.605-.048.782l.43.045c.098-.134.098-.356.193-.539 0-.096.095-.096.191-.096.079.048.237.28.317.369.047-.09.141-.273.141-.417 0-.048-.141-.144-.181-.144-.119-.098-.198-.192-.374-.192-.047-.195.216-.435.216-.435.292 0 .622.385.622.385.094-.049.142-.194.237-.29zm-4.444-2.95c-.049-.046-.095-.421-.141-.705 0-.093-.143-.235-.238-.33-.046.142-.188.237-.188.425 0 0 .236.235.282.377.049.094 0 .516.049.611.141-.14.236-.189.236-.377zm-3.875-3.688v-.096c-.14-.141-.33-.473-.33-.568-.095-.047-.095-.047-.235-.047-.048-.048-.143-.048-.19-.048 0 0 .046.237.141.474.048.095.142.189.188.189.096.048.285.096.426.096zm1.51 1.367c-.095-.094-.19-.189-.33-.283-.19-.047-.284-.141-.378-.33a.976.976 0 00-.188-.283c-.094 0-.14.046-.237.095-.094.094-.282.094-.377.235.047.095.095.19.19.283.046.048.094.142.282.236.33.19.424.236.424.236.284.049.614-.19.614-.19zM41.71 3.443a.664.664 0 00-.094-.283c-.048-.094-.142-.33-.142-.376 0-.378.047-.473.094-.802-.188-.047-.425-.047-.518.14-.095.142-.095.284-.095.426 0 .236.046.424.095.707-.19.141-.283.237-.473.33.048.282.095.806.095.806.095-.142.095-.142.188-.237.19-.143.283-.237.52-.427.046-.094.094-.047.236-.141.046-.049.094-.095.094-.143zm6.181 7.102a1.428 1.428 0 01-.236-.613c-.094-.094.095-.425-.141-.425a4.652 4.652 0 00-.377-.142 1.174 1.174 0 000 .567c0 .142.235.566.33.614.047.046.284.046.331.046.047-.047.093-.047.093-.047zm-1.179-2.688c-.377-.23-.85-.277-1.323-.277-.424 0-.895.046-1.366.369.046.2.094.348.187.539.048 0 .095.096.142.096.095-.096.188-.24.33-.287v.191c0 .145 0 .235.048.364 0 .132.141.132.33.132.189 0 .236-.304.236-.352 0 0 .048.176.33.305 0 0 .33 0 .33-.044.048-.214.095-.261.048-.454 0 0 .282.192.425.368.094-.086.188-.272.188-.32.095-.19.095-.437.095-.63zm2.453 4.064c-.19-.143-.236-.24-.33-.335-.142-.096-.238-.143-.425-.334h-.614c.095.237.141.381.472.62.19.144.567.096.897.049zm2.219 3.351s-.095-.569-.095-1.274c0-.046-.142-.33-.237-.376a.968.968 0 00-.235-.142v.189c0 .188.046.235.046.33 0 .095.141.754.141.942.237.048.237.237.38.331zm-9.58-11.024c-.046-.095-.424 0-.52 0-.234.047-.66.19-.66.285-.047.143-.047.476-.047.523.048.14.048.281.095.421.141-.14.188-.187.283-.234.046-.046.566-.425.612-.473.095-.095.142-.047.19-.142.001-.285.094-.285.047-.38zm5.05 6.674s-.095-.424-.142-.613v-.755c-.19.048-.236.095-.283.095-.142.095-.237.141-.237.236 0 .189.047.377.047.471 0 .142 0 .236.047.284.142.048.19.048.378.141 0 .047.19.141.19.141zm-.992-.567c.048-.14 0-.376-.047-.612-.189.047-.566.096-.566.237-.047.141 0 .282 0 .376.047.095.047.19.047.332 0 .094-.047.188 0 .33.048-.095.284-.189.33-.283.095-.144.188-.237.236-.38zm1.793 1.996c-.141-.096-.377-.383-.519-.526-.095-.097-.046-.239-.141-.336a.59.59 0 00-.283.048c-.141 0-.236 0-.377.048.046.095.046.19.141.239.189.19.189.238.377.526.047.094.283.14.472.14a.69.69 0 00.33-.139zM41.71 5.337c-.472.14-.802.234-.897.328-.236.14-.33.234-.566.375 0 .28 0 .28.047.42l.048.562c.094-.14.377-.421.518-.609.095-.094.283-.328.756-.561.046-.187.094-.327.094-.515zm3.161 5.68c.142-.141 0-.377 0-.52-.048-.14 0-.282-.048-.424a.259.259 0 00-.235-.141c-.095 0-.331-.142-.331-.048-.235 0-.048.237-.048.377 0 .19.472.66.472.66.096.049.096.001.19.096zm-1.085-1.369s-.047-.237-.095-.332a.626.626 0 00-.235-.284c-.048 0-.142-.095-.19-.048 0 0-.048.38-.094.427.094.142.188.237.235.378.048.142.095.331.19.472.047-.188.189-.282.189-.613zm-.944.284s-.141-.425-.189-.662c-.046-.142.047-.332-.046-.461-.048-.086-.19-.129-.283-.176-.096 0-.19.176-.19.352 0 .096.049.427.095.57 0 .048.096.095.19.142.14.093.282.14.423.235zm4.058 3.877c-.047-.187-.095-.422-.141-.611 0 0-.142-.094-.283-.094-.096 0-.189-.047-.284 0 .047.141.047.235.095.375.142.19.33.283.52.424.046.001.093-.094.093-.094zm-5.85-5.512c-.048-.348-.142-.624-.142-.717 0-.372.048-.464.094-.699-.189.094-.425.235-.612.327v.234c0 .093.046.608.046.76.048.142.048.286.095.43.046.09.095.177.095.262 0 0 .094-.042.141-.128.141-.134.188-.278.283-.469zm4.529 3.336s-.284.047-.331.095c-.047 0-.235 0-.33.097 0 .143 0 .286-.047.478-.094.141-.331.236-.331.471 0 0 .19.046.237.046a.978.978 0 00.236-.188c.141-.047.235-.142.376-.189.096-.044.19-.81.19-.81zm4.954 5.568c-.141.048-.424-.097-.424.188-.095.18-.189.358-.189.447h.518c.142-.178.189-.357.095-.635zm.519-1.257c-.094-.433-.33-.623-.565-.767-.095-.048-.991-.474-1.133-.474-.282.049-.756.049-1.038.191-.047-.142-.095-.377 0-.52.046-.093.52-.093.66-.093.52.046.802.14.945.14.14.142.282.142.33.142 0 0-.047-.283-.094-.377-.19-.095-.379-.142-.52-.189-.235-.095-.33-.141-.707-.189-.142 0-.142.048-.424.048 0-.048.046-.094.093-.141a1.97 1.97 0 01.284-.328h.754c.19.046.284.093.52.187.14 0 0-.235 0-.376a.648.648 0 00-.19-.14 2.282 2.282 0 01-.519-.19c-.141-.047-.425-.14-.66-.094-.236.094-.236.046-.426.141-.235.33-.376.706-.517 1.082 0 .095-.238.659-.238.754 0 .048-.046.142-.046.142-.19-.048-1.04-.19-1.275.046-.094.095-.19.19-.33.475-.19-.143-.33-.191-.52-.191a.816.816 0 00-.66.381c0 .048-.378.774-.33 1.448.047.38.188.515.376.781h.52c-.048-.178-.141-.402-.237-.683-.047-.243.048-.676.095-1.063 0 0 .14-.097.283-.144.095-.097.141-.049.283-.049.046 0 .046.049.046.049-.189.192-.189.385-.235.676 0 .144.189.859.376 1.214h.378s-.095-.926-.047-1.02c0-.194.047-.339.093-.485.096.05.19.05.285.098.14.097.14.193.14.337 0 .242 0 .289-.047.435v.233c0 .224.047.402.047.402h.378c0-.402.047-.355.095-.587.046-.194 0-.29.046-.433 0-.099.046-.194.095-.243.141-.096.235-.096.425-.048 0 .144 0 .291-.048.433a3.461 3.461 0 01-.188.7c0 .044-.047.134-.095.178h.567s.094-.178.14-.402c.142.136.331.047.425.047.141-.047.236-.183.331-.28-.19-.146-.614-.097-.614-.291-.093-.337 0-.385 0-.58 0-.289-.281-.384-.566-.433-.094-.048-.283-.048-.376-.048-.095.048-.19.192-.284.192 0 0-.19-.144-.33-.192-.095 0-.377-.099-.377-.099.047-.096.094-.192.141-.239.047-.048.188-.19.235-.19.095-.049.236 0 .331.048.235.047.425.095.472.095.047 0 .188.095.188.095.142-.095.142-.189.236-.189.283-.097.378-.144.661-.144.237 0 .425.43.567.574.046.098.376.531.566.918.095-.048.141-.144.235-.144 0-.097-.047-.483-.094-.532-.141-.435-.425-.53-.425-.625.094 0 .284.096.379.096.093.047.235.095.376.193.048.046.141.095.19.144.046.192.046.336.14.532 0 .048 0 .096.048.144.145-.29.286-.338.38-.579zm-6.558-4.501c0-.049-.141-.049-.236-.049-.094 0-.189.049-.284.049-.09.147-.154.308-.188.478-.047.143-.142.239-.188.335 0 0 .425-.095.518-.095.14-.096.236-.144.33-.335.048-.145.094-.193.048-.383zm-2.973-2.411c-.095-.224-.141-.267-.283-.4-.047.047-.283.176-.33.261a.885.885 0 00-.237.139c0 .095.047.142.095.237 0 .095.046.332.046.52 0 0 .142-.094.142-.188.237-.285.52-.52.567-.57zm4.2 5.25c-.048-.047-.048-.143-.095-.238-.095-.281-.046-.422-.095-.705h-.376c-.095.048-.141 0-.236.048 0 .187.046.328.188.565.14.284.614.33.614.33zm-2.36-2.696v-.334c-.046-.095 0-.282 0-.425-.046-.094-.14-.047-.187 0h-.284s-.095.377-.095.662c-.047.143-.094.238-.094.287-.094.191-.142.239-.236.478.142.049.283-.047.377-.047.095-.048.236-.096.283-.144.048-.047.19-.382.237-.477zm-1.51-1.513c-.094-.094-.141-.235-.189-.33-.188 0-.896.283-.896.283.141.236.235.472.33.755.095-.047.188-.094.283-.189.095-.142.379-.424.472-.52zm.19.755c-.095-.047-.283.047-.425.047-.142 0-.473 0-.473.047.048.095.048.189.095.283.047.095.095.19.095.428 0 .144.047.287 0 .478 0 0 .613-.335.613-.431.047-.142 0-.238.047-.381 0-.094 0-.33.048-.47zm1.65 2.652c-.517-.187-.472-.375-.66-.47-.236-.189-.613-.376-1.18-.565-.141-.046-.471 0-.613 0-.378.66-.52 1.27-.803 1.978l-.141.424c-.235-.143-.472-.236-.708-.236-.376 0-.659.14-.801.519-.141-.046-.331-.14-.566-.095a.987.987 0 00-.756.523c-.141.192-.189.386-.141.579-.236.097-.377.338-.473.532-.094.385.237 1.033.378 1.166h.471c-.095-.402-.282-.587-.141-1.02.095-.243.424-.339.52-.387 0-.194-.238-.338-.19-.532.095-.243.377-.243.66-.192-.046.289-.094.676-.14 1.06-.047.436.187 1.071.187 1.071h.52c-.047-.134-.095-.266-.095-.402-.047-.137-.047-.233-.047-.38.047-.192.047-.384.047-.53.472-.242.331.097.424.193 0 0 .19-.435-.046-.627-.048-.049-.331 0-.331-.049 0-.048.047-.192.094-.336.094-.193.14-.241.237-.383.046-.049.187-.049.377 0 .047 0 .283.048.425.094-.048.143-.236.434-.283.578-.19.58-.19 1.255-.141 1.842h.518c0-.311-.047-.684 0-1.02.095-.435.237-.486.283-.486.095 0 .19.099.236.195.095.483-.188.909-.188 1.311H41s.142-.045.19-.178c.094-.269.283-.554.33-.843.047-.243-.047-.435-.188-.726-.141-.193-.283-.339-.613-.578-.094-.19 0-.427 0-.427 0 .046.188-.049.282-.049.378.095.473.095.661.189.142.048.33.144.472.239.14.095.283.385.424.722 0 0 .095-.627.095-.816-.188-.19-.377-.38-.66-.522-.236-.19-.755-.33-.992-.424 0 0 .095-.14.095-.235.283-.049.613-.049.754 0 .473.14 1.038.423 1.274.612 0 0 .094-.189.094-.283 0 0-.66-.424-.612-.565-.19-.143-.331-.284-.52-.331-.282-.048-.849-.095-.849-.095s.142-.187.283-.33h.377c.19 0 .66.142.944.283.425.19.661.33.707.424.05-.138.096-.328.144-.422zm-1.132 3.865c-.047-.097-.188-.337-.376-.435-.331 0-.237.524-.331.748-.047.044-.094.133-.047.178h.708c-.001-.001.046-.402.046-.491zm17.06-13.43l-.574-.424-.19-.237.521-.141.242.803zm-2.04-.849h-.236l-.282.189-.378-.283.424-.236.471.33zm-9.405-.141a.354.354 0 01-.33.235c-.238-.282-.474-.471-.803-.566-.046-.188.095-.376.189-.518.141-.14.33-.19.519-.14.236.046.283.093.377.188.142.187.095.565.048.8zm-1.462.518c-.095.094-.332.048-.567.048 0-.095 0-.284-.095-.284-.095-.094-.236-.094-.236-.19-.189-.188.283-.046.52 0 .095.002.896.19.378.426zm.895.52s-.046.095-.094.095c-.048.096-.142.143-.236.19-.047 0-.094.095-.094.142-.094.142-.237.19-.425.19-.094 0-.283 0-.378-.19 0 0 .049.571.049.713 0 .046.047.046.047.046.189.048.236.234.33.328 0 0 .047.047.095.047.19.14.613.328.425.328 0 .094-.142.327-.189.327-.141-.14-.377-.234-.566-.327a19.426 19.426 0 01-.141-.28c-.095-.095-.142-.095-.284-.189 0-.328-.047-.328-.047-.66 0-.048-.094-.571-.094-.571 0-.049.141-.19.282-.237 0 0 .896 0 1.32.047zm-2.547-.944c0 .19-.141.282-.282.473-.095.141-.142.046-.378.046h-.235c0-.14.094-.187.235-.33.141-.094.283-.19.378-.19.093-.047.282-.093.282 0zM43.834 2.5c0 .047 0 .094-.046.094 0 0-.283.19-.378.284-.235.14-.283.377-.425.377-.094-.095-.282-.236-.376-.425-.142-.188-.095-.377-.095-.424.095-.283.425-.378.613-.424.094 0 .19 0 .33.094.188.093.283.093.377.424zm3.208 4.195c0 .046-.046.28-.046.28-.19-.047-.33-.186-.566-.186 0-.14 0-.14.047-.188.283-.047.424.046.565.094zm-2.264-2.542c0 .047-.047.333-.047.379-.048.286-.048.381-.095.805v.14c-.047.094-.237.14-.33.234-.048.14-.048.235-.19.281-.14.047-.235.187-.33.14-.14-.093-.094-.328 0-.467.095-.14.283-.234.425-.28.19-.047.142-.423.142-.47.046-.096 0-.238 0-.334-.095.048-.095 0-.284.048-.188 0-.282-.096-.377-.19-.094-.096-.33-.286-.425-.477.236-.046.425-.046.66-.046h.614c.142.046.237.142.237.237zM44.4 6.695c-.074.053-.153.1-.235.139-.095.047-.141.094-.283.14-.048-.094-.094-.28-.094-.28s.188-.048.33-.048c.093.001.188.001.282.049z" fill="#FFF" fill-rule="nonzero"/>
</svg>
