<svg xmlns="http://www.w3.org/2000/svg" viewBox="0 0 55 25">
  <g fill="#FFF" fill-rule="nonzero">
    <path d="M21.273 18.981c.174-.712.507-1.61.844-2.413.527-1.261 1.069-2.564 1.069-3.757 0-1.069-.459-2.144-1.262-2.944-.716-.715-2.038-1.564-4.288-1.564-.45 0-.856.03-1.216.08.11.37.194.757.25 1.155.288-.038.61-.06.966-.06 1.849 0 2.902.662 3.459 1.223.583.583.916 1.352.916 2.113 0 .959-.496 2.152-.98 3.307-.338.807-.701 1.784-.898 2.58-.466 1.86-1.213 4.818-3.065 4.818-.723 0-1.507-.458-2.265-1.072a9.18 9.18 0 01-1.212.515c1.06.95 2.239 1.731 3.477 1.731 2.773-.004 3.69-3.629 4.205-5.712zM5 11.246c-.481-1.19-.924-2.712-.924-3.996 0-2.261.557-4.117 1.53-5.09.576-.577 1.284-.857 2.163-.857 2.231 0 6.409 2.038 8.178 5.833.371-.064.784-.11 1.235-.128C15.307 2.48 10.436.128 7.769.128c-3.591 0-4.867 3.679-4.867 7.122 0 1.64.575 3.371 1.007 4.432.333-.152.697-.296 1.091-.436zM12.864 20.587a6.918 6.918 0 01-2.368.402c-2.735 0-5.723-1.224-7.613-3.114-.959-.958-1.508-1.985-1.508-2.81 0-1.217.489-2.065 1.394-2.728-.133-.318-.28-.7-.424-1.132C1.09 12.027.2 13.208.2 15.065c0 1.155.659 2.446 1.852 3.643 1.67 1.67 4.769 3.459 8.443 3.459a7.97 7.97 0 003.258-.667 62.905 62.905 0 01-.89-.913zM50.458 9.913c-1.45 0-2.666.265-3.769.704v7.311h2.455v-5.871c.352-.16.795-.243 1.254-.243 1.33 0 1.583.807 1.583 2.303v3.811h2.455V13.75c0-2.337-.78-3.837-3.978-3.837zM26.909 7.19h2.447v10.738h-2.447zM32.167 17.928h2.901l-3.038-4.314 2.788-3.417H32.03l-2.666 3.504zM40.28 11.784c1.072 0 1.78.667 1.78 2.208 0 1.493-.56 2.307-1.878 2.307-.379 0-.856-.076-1.102-.17v-4.11c.344-.16.768-.235 1.2-.235zm-3.647-1.17v10.318h2.447v-2.947a7.3 7.3 0 001.39.117c2.697 0 4.117-1.545 4.117-4.132 0-2.606-1.394-4.06-4.288-4.06-1.295.003-2.647.287-3.666.704z"/>
    <path d="M11.356 10.845V9.633a3.67 3.67 0 00-.985-.125c-1.416 0-2.113.958-2.113 1.924 0 .92.337 1.8 1.617 3.776a14.323 14.323 0 011.542-.125c-1.114-2.064-1.383-2.788-1.383-3.318 0-.613.352-.928 1.072-.928.099 0 .174.004.25.008zM7.5 12.636c-.102-.276-.182-.723-.208-1.045-1.13-.038-1.974.606-1.974 1.519 0 .73.375 1.382 1.928 2.7.387-.128.924-.28 1.371-.378-1.522-1.417-1.757-1.796-1.757-2.22 0-.31.216-.515.64-.576zM12.398 10.845V9.633c.291-.084.636-.125.988-.125 1.417 0 2.114.958 2.114 1.924 0 .92-.337 1.8-1.617 3.776a14.323 14.323 0 00-1.542-.125c1.114-2.064 1.382-2.788 1.382-3.318 0-.613-.352-.928-1.071-.928-.099 0-.179.004-.254.008zM16.258 12.636c.102-.276.181-.723.208-1.045 1.129-.038 1.973.606 1.973 1.519 0 .73-.375 1.382-1.928 2.7-.386-.128-.924-.28-1.37-.378 1.522-1.417 1.757-1.796 1.757-2.22 0-.31-.216-.515-.64-.576zM11.879 17.663c1.14 0 2.303.148 3.511.507l.413-1.356a13.667 13.667 0 00-3.924-.572c-1.246 0-2.565.167-3.924.572l.412 1.356a12.302 12.302 0 013.512-.507zM10.625 7.583l1.256-1.256 1.256 1.256-1.256 1.257z"/>
  </g>
</svg>
