<svg xmlns="http://www.w3.org/2000/svg" viewBox="0 0 66 25">
  <path d="M22.552 6.24h-3.495v4.578h-3.633V6.24H11.93v11.51h3.494v-4.522h3.633v4.532h3.495V6.24zm12.154 9.203V6.24h-3.495v11.51h6.311l.523-2.316h-3.339v.01zM28.624 6.24H25.13v11.51h3.494V6.24zm14.164 0h-3.495v11.51h3.495V6.24zm17.217 2.945c0-.628.624-.914 1.624-.914 1.1 0 2.293.24 3.11.581l-.285-2.501C63.546 6.148 62.73 6 61.244 6c-2.826 0-4.734 1.117-4.734 3.47 0 4.044 5.45 3.232 5.45 5.105 0 .72-.524 1.108-1.817 1.108-1.147 0-2.917-.388-3.972-.914l.385 2.65c1.055.387 2.486.581 3.633.581 2.917 0 5.311-.96 5.311-3.85.01-3.858-5.495-3.138-5.495-4.965zm-9.851 5.824c3.256 0 5.31-1.689 5.31-4.624 0-3.231-2.2-4.385-5.787-4.385-1.386 0-3.064.092-4.257.24v11.51h3.495v-2.74h1.239zm1.862-4.578c0 1.495-.716 2.501-2.532 2.501h-.578V8.178c.202-.009.394-.009.578-.009 1.724 0 2.532.822 2.532 2.262zM5.233 15.009c3.257 0 5.311-1.689 5.311-4.624C10.544 7.154 8.343 6 4.756 6 3.371 6 1.692 6.092.5 6.24v11.51h3.495v-2.74h1.238zm1.872-4.578c0 1.495-.716 2.501-2.532 2.501h-.578V8.178c.202-.009.394-.009.578-.009 1.715 0 2.532.822 2.532 2.262z" fill="#FFF" fill-rule="nonzero"/>
</svg>
