<?xml version="1.0" encoding="UTF-8"?>
<svg width="76px" height="25px" viewBox="0 0 76 25" version="1.1" xmlns="http://www.w3.org/2000/svg" xmlns:xlink="http://www.w3.org/1999/xlink">
    <title>Vrienden Loterij 02</title>
    <g id="Vrienden-Loterij-02" stroke="none" stroke-width="1" fill="none" fill-rule="evenodd">
        <g id="VL_LOGO_2021_diap-3" fill="#FFFFFF" fill-rule="nonzero">
            <g id="VL_LOGO_2021_diap">
                <g id="Group">
                    <g transform="translate(11.619718, 0.000000)">
                        <g transform="translate(9.953052, 0.000000)">
                            <path d="M0,10.6773283 L0,0 L2.95774648,0 L2.95774648,10.65381 C2.95774648,10.6773283 0,10.6773283 0,10.6773283 Z" id="Path"></path>
                            <polygon id="Path" points="11.4084507 2.37535278 7.37089202 2.37535278 7.37089202 4.63311383 10.3521127 4.63311383 10.3521127 6.89087488 7.37089202 6.89087488 7.37089202 8.2784572 11.4084507 8.2784572 11.4084507 10.6773283 4.41314554 10.6773283 4.41314554 0 11.4084507 0"></polygon>
                            <polygon id="Path" points="19.741784 0 22.5117371 0 22.5117371 10.65381 21.3380282 10.65381 15.5399061 5.3621825 15.5399061 10.65381 12.7230047 10.65381 12.7230047 0 13.8967136 0 19.741784 5.3621825"></polygon>
                            <path d="M28.0985915,0 C31.9014085,0 34.1549296,1.71683913 34.1549296,5.17403575 C34.1549296,8.4901223 32.2769953,10.6773283 28.1220657,10.6773283 L23.8732394,10.6773283 L23.8732394,0 L28.0985915,0 Z M28.1455399,8.2784572 C30.2112676,8.2784572 31.1502347,7.24365005 31.1502347,5.33866416 C31.1502347,3.7158984 30.2347418,2.37535278 28.1220657,2.37535278 L26.8309859,2.37535278 L26.8309859,8.2784572 L28.1455399,8.2784572 Z" id="Shape"></path>
                            <polygon id="Path" points="42.3004695 2.37535278 38.2629108 2.37535278 38.2629108 4.63311383 41.2441315 4.63311383 41.2441315 6.89087488 38.2629108 6.89087488 38.2629108 8.2784572 42.3004695 8.2784572 42.3004695 10.6773283 35.3051643 10.6773283 35.3051643 0 42.3004695 0"></polygon>
                            <polygon id="Path" points="50.657277 0 53.42723 0 53.42723 10.65381 52.2535211 10.65381 46.4553991 5.3621825 46.4553991 10.65381 43.6384977 10.65381 43.6384977 0 44.8122066 0 50.657277 5.3621825"></polygon>
                        </g>
                        <path d="M6.31455399,7.31420508 C7.74647887,6.77328316 8.63849765,5.64440263 8.63849765,3.78645343 C8.63849765,1.38758231 7.18309859,0.0235183443 3.61502347,0.0235183443 L0,0.0235183443 L0,10.6773283 L2.95774648,10.6773283 L2.95774648,7.69049859 L3.2629108,7.69049859 L5.51643192,10.65381 L9.03755869,10.65381 L6.31455399,7.31420508 Z M3.56807512,5.38570085 L2.95774648,5.38570085 L2.95774648,2.39887112 L3.73239437,2.39887112 C5.14084507,2.39887112 5.61032864,2.96331138 5.61032864,3.9275635 C5.61032864,5.00940734 4.97652582,5.38570085 3.56807512,5.38570085 Z" id="Shape"></path>
                    </g>
                    <polygon id="Path" points="8.00469484 0 5.51643192 5.73847601 2.95774648 0 1.66794069e-15 0 4.95305164 10.6067733 6.05633803 10.6067733 10.9859155 0"></polygon>
                </g>
                <g id="Group" transform="translate(10.422535, 12.699906)">
                    <g transform="translate(0.000000, 0.000000)">
                        <polygon id="Path" points="2.95774648 9.66603951 6.29107981 9.66603951 6.29107981 12.0649106 3.33588139e-15 12.0649106 3.33588139e-15 0.235183443 2.95774648 0.235183443"></polygon>
                        <path d="M6.15023474,5.45625588 C6.15023474,1.81091251 8.23943662,0 11.5962441,0 C14.9765258,0 17.0892019,1.83443086 17.0892019,5.38570085 C17.0892019,9.00752587 14.9061033,11.1006585 11.5492958,11.1006585 C8.30985915,11.1006585 6.15023474,9.17215428 6.15023474,5.45625588 Z M14.0140845,5.43273754 C14.0140845,3.38664158 13.1455399,2.42238946 11.5962441,2.42238946 C10.0469484,2.42238946 9.17840376,3.38664158 9.17840376,5.43273754 C9.17840376,7.57290687 10.0938967,8.63123236 11.57277,8.63123236 C13.0985915,8.65475071 14.0140845,7.54938852 14.0140845,5.43273754 Z" id="Shape"></path>
                        <polygon id="Path" points="26.6901408 0.211665099 26.6901408 2.58701787 23.5680751 2.58701787 23.5680751 10.8654751 20.6103286 10.8654751 20.6103286 2.58701787 17.4882629 2.58701787 17.4882629 0.211665099 26.6901408 0.211665099"></polygon>
                        <polygon id="Path" points="34.9530516 2.58701787 30.915493 2.58701787 30.915493 4.84477893 33.8967136 4.84477893 33.8967136 7.10253998 30.915493 7.10253998 30.915493 8.4901223 34.9530516 8.4901223 34.9530516 10.8889934 27.9577465 10.8889934 27.9577465 0.235183443 34.9530516 0.235183443"></polygon>
                    </g>
                    <path d="M42.5821596,7.52587018 C44.0140845,6.98494826 44.9061033,5.85606773 44.9061033,3.99811853 C44.9061033,1.59924741 43.4507042,0.235183443 39.8826291,0.235183443 L36.2676056,0.235183443 L36.2676056,10.8889934 L39.2253521,10.8889934 L39.2253521,7.92568203 L39.5305164,7.92568203 L41.7840376,10.8889934 L45.3051643,10.8889934 L42.5821596,7.52587018 Z M39.8356808,5.59736595 L39.2253521,5.59736595 L39.2253521,2.61053622 L40,2.61053622 C41.4084507,2.61053622 41.8779343,3.17497648 41.8779343,4.1392286 C41.8779343,5.22107244 41.2441315,5.59736595 39.8356808,5.59736595 Z" id="Shape"></path>
                    <polygon id="Path" points="46.1737089 10.8889934 46.1737089 0.235183443 49.1314554 0.235183443 49.1314554 10.8889934"></polygon>
                    <path d="M52.0892019,0.211665099 L55.0469484,0.211665099 L55.0469484,8.01975541 C55.0469484,11.1476952 52.9107981,12.3000941 49.9530516,12.3000941 L49.8591549,9.90122295 C51.4553991,9.90122295 52.0892019,9.19567262 52.0892019,7.50235183 L52.0892019,0.211665099 L52.0892019,0.211665099 Z" id="Path"></path>
                </g>
            </g>
        </g>
    </g>
</svg>