<?xml version="1.0" encoding="utf-8"?>
<!-- Generator: Adobe Illustrator 25.2.3, SVG Export Plug-In . SVG Version: 6.00 Build 0)  -->
<svg version="1.1" id="Laag_1" xmlns="http://www.w3.org/2000/svg" xmlns:xlink="http://www.w3.org/1999/xlink" x="0px" y="0px"
	 viewBox="0 0 2543.2 326.2" style="enable-background:new 0 0 2543.2 326.2;" xml:space="preserve">
<style type="text/css">
	.st0{fill:#ffffff;}
</style>
<g>
	<path class="st0" d="M2327.1,307.6c-16.2,0-31.9,0-47.9,0c0-96.3,0-192.5,0-288.9c1-0.1,1.9-0.3,2.9-0.3c16.2,0,32.5-0.1,48.7,0.1
		c1.4,0,3.5,0.9,4.1,2.1c20.1,36.4,40.1,72.9,60,109.4c2.6,4.8,4.7,9.8,7.3,15.3c2-4.3,3.6-8.2,5.6-11.9
		c15.5-28.7,31-57.3,46.6-85.9c4.7-8.7,9.6-17.2,14.3-25.9c1.2-2.2,2.5-3.2,5.2-3.2c15.9,0.1,31.7,0.1,47.6,0.1c1.1,0,2.2,0,3.6,0
		c0,96.5,0,192.6,0,289.1c-15.7,0-31.4,0-47.5,0c-0.1-1.3-0.2-2.6-0.2-3.9c0-59.4-0.2-118.7,0.1-178.1c0-11.6,1.7-23.1,2.6-34.7
		c0.1-1,0.2-1.9-0.3-3c-1,2.6-1.8,5.4-3,7.9c-9.2,18.1-18.4,36.3-28,54.2c-8.4,15.6-17.3,31-25.9,46.5c-1.2,2.2-2.5,2.9-5,2.9
		c-10.6-0.1-21.2,0-31.9-0.1c-1.3,0-3.3-0.8-3.9-1.9c-16.7-30.3-33.5-60.5-49.9-91c-3.2-5.8-5.2-12.3-8.1-19.2
		c0.7,6.6,1.5,12.4,1.8,18.1c0.5,8.8,1.1,17.7,1.1,26.6c0.1,57,0,114,0,171C2327.1,304.2,2327.1,305.7,2327.1,307.6z"/>
	<path class="st0" d="M1283.9,307.6c-16,0-31.6,0-47.6,0c-0.1-1.5-0.2-2.8-0.2-4.1c0-58.4-0.2-116.7,0.1-175.1
		c0.1-12.6,1.7-25.1,2.7-37.7c0.1-0.9,0.2-1.7,0.3-3c-0.5,0.5-0.8,0.6-0.9,0.8c-6.8,19.6-17.2,37.4-27.3,55.4
		c-9.7,17.3-19.4,34.6-29,52c-1.3,2.4-2.8,3.3-5.5,3.3c-10.5-0.2-21,0-31.5-0.2c-1.4,0-3.4-1-4.1-2.2c-16.4-29.5-32.7-59-48.8-88.6
		c-3.5-6.5-5.9-13.6-9.2-20.4c0.4,2.6,0.9,5.3,1,7.9c0.7,11.7,1.9,23.4,1.9,35.1c0.2,57.4,0.1,114.7,0.1,172.1c0,1.5,0,2.9,0,4.6
		c-16.2,0-31.8,0-47.8,0c0-96.3,0-192.5,0-288.9c1.2-0.1,2.3-0.2,3.4-0.2c16,0,32,0.1,48-0.1c2.5,0,3.8,0.8,4.9,3
		c18.9,34.6,38,69.2,56.9,103.8c3.5,6.3,6.3,13,9.5,19.6c0.3-0.2,0.7-0.3,0.8-0.6c14.4-27.1,28.7-54.3,43.2-81.4
		c7.5-14,15.3-27.8,23.1-41.6c0.7-1.2,2.5-2.6,3.8-2.6c16.9-0.2,33.7-0.1,50.6-0.1c0.5,0,0.9,0.1,1.6,0.3
		C1283.9,115,1283.9,211.1,1283.9,307.6z"/>
	<g>
		<path class="st0" d="M661.9,88.2c18.2-22.9,36.7-45.7,54.6-68.8c-0.3-0.3-0.6-0.6-0.8-0.9c-1.2,0-2.5,0-3.7,0
			c-17.5,0-35,0.1-52.5-0.1c-2.6,0-4.3,0.8-5.9,2.9c-26.4,34.1-52.8,68.1-79.3,102.2c-3.5,4.5-7,8.9-10.5,13.4
			c-0.3-0.1-0.5-0.2-0.8-0.3c0-39.3,0-78.6,0-117.9c-16.2,0-32.1,0-48,0c0,96.5,0,192.7,0,288.9c16.2,0,32,0,48.3,0
			c0-42.9,0-85.5,0-129c1.2,1.5,1.8,2.3,2.4,3.1c30.7,41.1,61.5,82.3,92.1,123.5c1.5,2.1,3.1,2.8,5.6,2.7
			c17.7-0.1,35.5-0.1,53.2-0.1c1.1,0,2.1-0.1,4.6-0.3c-38.5-50.5-76.5-100.3-114.5-150.1C625.3,134.1,643.6,111.2,661.9,88.2z"/>
		<path class="st0" d="M876,153.5c-15.7-7.3-32.3-12.5-48.4-19c-8.5-3.5-17.3-6.9-24.7-12.2c-19-13.3-17.2-41.8,2.7-53.6
			c7.9-4.7,16.7-6.8,25.7-7.5c27-2.3,52.1,3.8,75.4,17.4c1,0.6,2.1,1.1,4.1,2.1c0-2.3,0-3.7,0-5c0-11.7-0.7-23.5,0.2-35.2
			c0.6-8.3-2.8-12-9.8-14.9C865.4,10.7,829,8.7,792.7,22.6C760.4,35,742.2,58.9,739.9,94c-2.3,35.4,12.2,61.5,44.1,76.8
			c11.3,5.5,23.4,9.2,35.1,14c11.3,4.6,23,8.6,33.7,14.4c23.4,12.7,19.5,44.8,0.9,56.6c-12,7.6-25.3,9.9-39.1,9.6
			c-25.8-0.5-49.6-8.3-71.9-21c-1-0.6-2.1-0.9-3.8-1.6c0,2.1,0,3.4,0,4.7c0,12.4,0.5,24.8-0.2,37.1c-0.3,6.7,2.1,10.1,7.8,12.7
			c34.5,15.9,70.2,19.7,107,10c18.8-4.9,35.2-14.4,47.4-29.9c18.4-23.2,21.5-49.7,14.9-77.7C910.7,177.8,896,162.8,876,153.5z"/>
		<path class="st0" d="M311.3,18.6c-16.1,0-31.9,0-47.9,0c0,60.1,0,119.8,0,179.5c16.1,0,32,0,47.9,0
			C311.3,138.2,311.3,78.5,311.3,18.6z"/>
		<path class="st0" d="M449.3,18.6c-16.3,0-32.1,0-48.4,0c0,1.8,0,3.4,0,5c0,60.9,0,121.7-0.1,182.6c0,4.4-0.1,8.7-0.4,13.1
			c-1.7,23.9-14.6,38.8-38,43.6c-12.8,2.6-25.6,2-38.4,0.2c-19-2.8-36.7-9.5-53.7-18c-2.1-1-4.2-2-6.6-3.2c-0.3,1.2-0.5,1.5-0.5,1.9
			c0,15.4-0.1,30.7,0,46.1c0,1.1,1.2,2.7,2.3,3.2c36.5,18.6,74.8,24.3,114.9,15.6c23.4-5.1,42.5-17.1,55.1-38
			c10.3-17.1,13.8-36,13.8-55.7c0.1-64.1,0-128.2,0-192.3C449.3,21.5,449.3,20.1,449.3,18.6z"/>
		<path class="st0" d="M1231.6,18.5c-1.3,0-3.1,1.4-3.8,2.6c-7.8,13.8-15.6,27.6-23.1,41.6c-14.5,27.1-28.8,54.2-43.2,81.4
			c-0.1,0.3-0.5,0.4-0.8,0.6c-3.2-6.6-6.1-13.3-9.5-19.6c-18.9-34.6-38-69.2-56.9-103.8c-1.2-2.1-2.4-3-4.9-3c-16,0.1-32,0.1-48,0.1
			c-1.1,0-2.2,0.1-3.4,0.2c0,96.4,0,192.6,0,288.9c15.9,0,31.6,0,47.8,0c0-1.7,0-3.1,0-4.6c0-57.4,0.1-114.7-0.1-172.1
			c0-11.7-1.2-23.4-1.9-35.1c-0.2-2.6-0.7-5.3-1-7.9c3.3,6.8,5.7,13.9,9.2,20.4c16.1,29.6,32.4,59.1,48.8,88.6
			c0.6,1.2,2.7,2.1,4.1,2.2c10.5,0.2,21,0,31.5,0.2c2.7,0,4.2-0.9,5.5-3.3c9.6-17.4,19.3-34.7,29-52c10.1-18,20.5-35.8,27.3-55.4
			c0.1-0.2,0.4-0.4,0.9-0.8c-0.1,1.3-0.2,2.1-0.3,3c-0.9,12.6-2.6,25.1-2.7,37.7c-0.3,58.4-0.1,116.7-0.1,175.1
			c0,1.3,0.1,2.6,0.2,4.1c16,0,31.6,0,47.6,0c0-96.5,0-192.6,0-288.9c-0.7-0.1-1.2-0.3-1.6-0.3C1265.4,18.4,1248.5,18.4,1231.6,18.5
			z"/>
		<path class="st0" d="M1543.1,18.6c-16.2,0-32,0-48.3,0c0,2,0,3.5,0,4.9c0,59.6,0,119.2-0.1,178.8c0,7.6-0.4,15.3-1.7,22.7
			c-3.2,19.2-13.6,32.5-33.2,37.2c-13.4,3.2-27,3.2-40.5-0.1c-16.4-4-27.1-14.4-31.1-30.7c-2.1-8.8-3.1-18-3.2-27
			c-0.3-60.4-0.1-120.7-0.1-181.1c0-1.6,0-3.1,0-4.7c-16.5,0-32.4,0-48.5,0c0,1.4,0,2.6,0,3.7c0,63-0.2,126,0.1,189
			c0.1,10.9,1.4,22,3.6,32.7c6.2,29.6,22.7,51.3,52,61.2c30.1,10.2,60.8,10.2,91.1,1.4c27.5-8,45.3-26.4,53.9-53.7
			c4.5-14.2,6-28.8,6-43.6c0.1-62.2,0-124.5,0-186.7C1543.3,21.4,1543.2,20,1543.1,18.6z"/>
		<path class="st0" d="M2521.4,18.4c-15.9,0-31.8,0.1-47.6-0.1c-2.7,0-4,1-5.2,3.2c-4.7,8.7-9.6,17.3-14.3,25.9
			c-15.6,28.6-31.1,57.3-46.6,85.9c-2,3.7-3.6,7.6-5.6,11.9c-2.6-5.5-4.7-10.5-7.3-15.3c-19.9-36.5-39.9-73-60-109.4
			c-0.6-1.1-2.7-2-4.1-2.1c-16.2-0.1-32.5-0.1-48.7-0.1c-1,0-1.9,0.2-2.9,0.3c0,96.4,0,192.6,0,288.9c16,0,31.7,0,47.9,0
			c0-1.9,0-3.4,0-4.9c0-57,0.1-114,0-171c0-8.9-0.6-17.7-1.1-26.6c-0.4-5.8-1.2-11.6-1.8-18.1c2.9,6.9,5,13.4,8.1,19.2
			c16.5,30.4,33.2,60.7,49.9,91c0.6,1,2.6,1.9,3.9,1.9c10.6,0.2,21.2,0,31.9,0.1c2.4,0,3.8-0.7,5-2.9c8.6-15.5,17.5-30.9,25.9-46.5
			c9.6-17.9,18.7-36.1,28-54.2c1.3-2.5,2-5.2,3-7.9c0.4,1.1,0.3,2.1,0.3,3c-0.9,11.6-2.5,23.1-2.6,34.7
			c-0.3,59.4-0.1,118.7-0.1,178.1c0,1.3,0.1,2.6,0.2,3.9c16.1,0,31.8,0,47.5,0c0-96.4,0-192.6,0-289.1
			C2523.7,18.4,2522.6,18.4,2521.4,18.4z"/>
		<path class="st0" d="M2226.6,18.7c-16.4,0-32.3,0-48.5,0c0,1.8,0,3.3,0,4.7c0,59.9,0,119.7-0.1,179.6c0,7.6-0.5,15.3-1.8,22.7
			c-3.5,20.8-15.6,33.2-36.2,37.3c-11.1,2.2-22.4,2.1-33.5,0c-19.9-3.7-32-15.7-35.9-35.4c-1.5-7.5-2.2-15.4-2.2-23.1
			c-0.2-60.4-0.1-120.7-0.1-181.1c0-1.6,0-3.2,0-5c-16.3,0-32.1,0-48.5,0c0,1.8,0,3.3,0,4.8c0,62.1-0.2,124.2,0.2,186.3
			c0.1,11.4,1.3,23,3.6,34.2c6.3,30.4,23.5,52.2,53.6,61.9c29.6,9.5,59.6,9.5,89.4,0.9c28.4-8.3,46.3-27.4,54.6-55.7
			c3.9-13.4,5.4-27.2,5.4-41.1c0.1-62.2,0-124.5,0-186.7C2226.6,21.7,2226.6,20.3,2226.6,18.7z"/>
		<path class="st0" d="M1810.4,307.5c55.8,0,111.2,0,166.7,0c0-15.5,0-30.7,0-46.3c-39.6,0-78.9,0-118.3,0c0-26.9,0-53.5,0-80.3
			c38,0,75.7,0,113.6,0c0-15.6,0-30.9,0-46.5c-38.1,0-75.9,0-113.6,0c0-23.3,0-46.3,0-69.6c39.6,0,78.9,0,118.3,0
			c0-15.6,0-30.8,0-46.2c-55.7,0-111.1,0-166.7,0C1810.4,115.1,1810.4,211.3,1810.4,307.5z"/>
		<path class="st0" d="M1741,167.4c-8.8-8.2-19.1-14.2-30.2-18.6c-12.9-5.1-26.1-9.3-39-14.4c-8.4-3.4-17.1-6.8-24.4-12
			c-19.2-13.4-17.5-41.8,2.6-53.8c7.9-4.7,16.7-6.7,25.7-7.5c27-2.2,52.1,3.9,75.4,17.4c1,0.6,2.1,1,4,1.9c0-2.2,0-3.4,0-4.7
			c0-12.4-0.5-24.8,0.2-37.1c0.4-6.7-2.1-9.9-7.8-12.4c-36.2-15.9-73.2-18.1-110.2-4c-55.6,21.2-60.2,73.9-48,108.5
			c6.7,19,21,31.5,38.7,39.8c12.9,6,26.5,10.3,39.7,15.6c9.8,4,19.9,7.6,29.1,12.6c23.8,13,19.7,45.5,0.7,57.1
			c-12,7.3-25.2,9.6-38.8,9.3c-25.8-0.5-49.6-8.3-71.9-21c-1-0.6-2.1-0.9-3.7-1.5c0,14.4,0.4,28.1-0.2,41.8
			c-0.3,6.7,2.2,10,7.9,12.7c32.3,15,65.8,19,100.5,11.7c19.9-4.2,37.5-13.1,51.2-28.5c16.8-18.8,22.1-41.2,20.1-65.8
			C1761.5,196.4,1754.9,180.2,1741,167.4z"/>
		<path class="st0" d="M201.6,137.3c4.6-19.9,4.3-39.9-0.9-59.7c-6.5-24.8-22.2-41.4-46.1-50.5c-13-4.9-26.5-7.8-40.2-8
			c-32.4-0.6-64.7-0.5-97.1-0.7c-0.6,0-1.2,0.1-1.9,0.2c0,96.6,0,192.8,0,288.9c16.2,0,32,0,48.4,0c0-35.7,0-71.3,0-106.7
			c19.8-0.4,39.1-0.9,59.1-1.3c0.1,0.1,0.5,1.3,1,2.4c13.2,34,26.5,67.9,39.7,101.9c1.2,3.1,2.7,4.1,5.9,4
			c14.6-0.2,29.2-0.1,43.9-0.1c1.3,0,2.6-0.1,4.7-0.2c-17.2-41.5-34-82.4-51-123.3C185.7,173.5,196.9,157.7,201.6,137.3z
			 M153.3,120.6c-2.1,15.9-12.1,25.6-27.1,30.2c-20.4,6.3-41.3,3.7-62.3,4.2c0-30.3,0-60.1,0-90.1c0.6-0.1,1.1-0.4,1.7-0.4
			c15.5,0.3,31,0.3,46.4,1.3c6.7,0.5,13.5,2.6,19.8,5.1c11.6,4.6,19,13.5,20.9,25.9C154,104.6,154.3,112.8,153.3,120.6z"/>
	</g>
	<path class="st0" d="M2019.8,18.6c16.4,0,32.2,0,48.5,0c0,1.8,0,3.4,0,5c0,60.4-0.1,120.7,0.1,181.1c0,7.7,0.7,15.5,2.2,23.1
		c3.9,19.7,16.1,31.7,35.9,35.4c11.2,2.1,22.4,2.2,33.5,0c20.6-4.1,32.8-16.6,36.2-37.3c1.2-7.5,1.7-15.2,1.8-22.7
		c0.1-59.9,0.1-119.7,0.1-179.6c0-1.5,0-3,0-4.7c16.2,0,32.1,0,48.5,0c0,1.6,0,3,0,4.5c0,62.2,0.1,124.5,0,186.7
		c0,13.9-1.5,27.7-5.4,41.1c-8.3,28.3-26.2,47.5-54.6,55.7c-29.7,8.7-59.8,8.6-89.4-0.9c-30.1-9.7-47.3-31.5-53.6-61.9
		c-2.3-11.2-3.6-22.8-3.6-34.2c-0.3-62.1-0.2-124.2-0.2-186.3C2019.8,21.9,2019.8,20.5,2019.8,18.6z"/>
	<path class="st0" d="M1494.8,18.6c16.3,0,32.1,0,48.3,0c0.1,1.4,0.2,2.7,0.2,4.1c0,62.2,0.1,124.5,0,186.7c0,14.8-1.5,29.4-6,43.6
		c-8.6,27.3-26.4,45.7-53.9,53.7c-30.4,8.8-61.1,8.8-91.1-1.4c-29.2-9.9-45.8-31.6-52-61.2c-2.2-10.7-3.6-21.8-3.6-32.7
		c-0.3-63-0.1-126-0.1-189c0-1.1,0-2.2,0-3.7c16.1,0,32,0,48.5,0c0,1.6,0,3.2,0,4.7c0,60.4-0.1,120.7,0.1,181.1c0,9,1.1,18.3,3.2,27
		c4,16.3,14.7,26.6,31.1,30.7c13.4,3.3,27,3.4,40.5,0.1c19.6-4.7,29.9-18,33.2-37.2c1.3-7.5,1.6-15.2,1.7-22.7
		c0.1-59.6,0.1-119.2,0.1-178.8C1494.8,22.1,1494.8,20.6,1494.8,18.6z"/>
	<path class="st0" d="M515.1,18.6c15.9,0,31.7,0,48,0c0,39.4,0,78.7,0,117.9c0.3,0.1,0.5,0.2,0.8,0.3c3.5-4.5,7-8.9,10.5-13.4
		c26.4-34,52.9-68.1,79.3-102.2c1.6-2.1,3.3-2.9,5.9-2.9c17.5,0.1,35,0.1,52.5,0.1c1.2,0,2.5,0,3.7,0c0.3,0.3,0.6,0.6,0.8,0.9
		c-17.9,23.1-36.4,45.9-54.6,68.8c-18.3,23-36.6,45.9-55.1,69.1c38,49.9,76,99.6,114.5,150.1c-2.4,0.2-3.5,0.3-4.6,0.3
		c-17.7,0-35.5,0-53.2,0.1c-2.5,0-4.1-0.7-5.6-2.7c-30.6-41.2-61.4-82.3-92.1-123.5c-0.6-0.8-1.2-1.5-2.4-3.1c0,43.4,0,86.1,0,129
		c-16.3,0-32.1,0-48.3,0C515.1,211.3,515.1,115.1,515.1,18.6z"/>
	<path class="st0" d="M1810.4,18.6c55.6,0,111,0,166.7,0c0,15.4,0,30.6,0,46.2c-39.4,0-78.7,0-118.3,0c0,23.3,0,46.3,0,69.6
		c37.8,0,75.6,0,113.6,0c0,15.7,0,30.9,0,46.5c-37.9,0-75.6,0-113.6,0c0,26.9,0,53.4,0,80.3c39.4,0,78.7,0,118.3,0
		c0,15.6,0,30.8,0,46.3c-55.5,0-110.9,0-166.7,0C1810.4,211.3,1810.4,115.1,1810.4,18.6z"/>
	<path class="st0" d="M1755.2,80.6c-1.9-0.9-3-1.3-4-1.9c-23.3-13.6-48.4-19.7-75.4-17.4c-9,0.7-17.8,2.8-25.7,7.5
		c-20.1,12-21.8,40.4-2.6,53.8c7.4,5.1,16,8.6,24.4,12c12.8,5.2,26.1,9.4,39,14.4c11.1,4.4,21.3,10.4,30.2,18.6
		c13.9,12.8,20.5,29,21.9,47.5c2,24.6-3.3,47-20.1,65.8c-13.7,15.4-31.4,24.3-51.2,28.5c-34.7,7.3-68.3,3.3-100.5-11.7
		c-5.8-2.7-8.2-6-7.9-12.7c0.6-13.7,0.2-27.5,0.2-41.8c1.5,0.6,2.7,0.9,3.7,1.5c22.3,12.7,46.1,20.5,71.9,21
		c13.6,0.3,26.8-2,38.8-9.3c19-11.6,23.1-44.1-0.7-57.1c-9.3-5.1-19.3-8.7-29.1-12.6c-13.2-5.3-26.8-9.7-39.7-15.6
		c-17.8-8.2-32-20.8-38.7-39.8c-12.2-34.6-7.6-87.3,48-108.5c36.9-14.1,73.9-11.9,110.2,4c5.7,2.5,8.2,5.7,7.8,12.4
		c-0.7,12.3-0.2,24.7-0.2,37.1C1755.2,77.2,1755.2,78.4,1755.2,80.6z"/>
	<path class="st0" d="M910.8,80.7c-2-1-3.1-1.5-4.1-2.1C883.3,65,858.2,59,831.2,61.2c-9,0.8-17.8,2.8-25.7,7.5
		c-19.9,11.8-21.7,40.3-2.7,53.6c7.4,5.2,16.2,8.7,24.7,12.2c16,6.6,32.7,11.8,48.4,19c20,9.3,34.7,24.2,40,46.4
		c6.6,28,3.5,54.5-14.9,77.7c-12.2,15.4-28.6,24.9-47.4,29.9c-36.8,9.7-72.5,5.9-107-10c-5.8-2.7-8.2-6.1-7.8-12.7
		c0.6-12.3,0.2-24.7,0.2-37.1c0-1.3,0-2.7,0-4.7c1.7,0.7,2.8,1.1,3.8,1.6c22.3,12.7,46.1,20.5,71.9,21c13.8,0.3,27.1-2.1,39.1-9.6
		c18.6-11.8,22.5-43.9-0.9-56.6c-10.7-5.8-22.4-9.8-33.7-14.4c-11.7-4.7-23.8-8.5-35.1-14c-31.9-15.4-46.4-41.4-44.1-76.8
		c2.3-35.2,20.5-59.1,52.8-71.5c36.3-13.9,72.6-11.9,108.5,2.9c7,2.9,10.4,6.6,9.8,14.9c-0.9,11.7-0.2,23.5-0.2,35.2
		C910.8,77,910.8,78.3,910.8,80.7z"/>
	<path class="st0" d="M263.6,241.9c2.5,1.2,4.6,2.1,6.6,3.2c17.1,8.5,34.8,15.2,53.7,18c12.8,1.9,25.6,2.5,38.4-0.2
		c23.4-4.8,36.4-19.7,38-43.6c0.3-4.4,0.4-8.7,0.4-13.1c0-60.9,0-121.7,0.1-182.6c0-1.6,0-3.2,0-5c16.3,0,32.1,0,48.4,0
		c0,1.5,0,2.8,0,4.1c0,64.1,0.1,128.2,0,192.3c0,19.6-3.5,38.6-13.8,55.7c-12.6,20.9-31.7,33-55.1,38c-40.1,8.7-78.4,3-114.9-15.6
		c-1.1-0.5-2.3-2.1-2.3-3.2c-0.1-15.4-0.1-30.7,0-46.1C263.1,243.4,263.3,243.1,263.6,241.9z"/>
	<path class="st0" d="M263.4,18.6c16,0,31.8,0,47.9,0c0,59.9,0,119.6,0,179.5c-15.9,0-31.7,0-47.9,0
		C263.4,138.4,263.4,78.7,263.4,18.6z"/>
</g>
</svg>
