<?xml version="1.0" encoding="utf-8"?>
<!-- Generator: Adobe Illustrator 25.2.3, SVG Export Plug-In . SVG Version: 6.00 Build 0)  -->
<svg version="1.1" id="Laag_1" xmlns="http://www.w3.org/2000/svg" xmlns:xlink="http://www.w3.org/1999/xlink" x="0px" y="0px"
	 viewBox="0 0 2543.2 326.2" style="enable-background:new 0 0 2543.2 326.2;" xml:space="preserve">
<style type="text/css">
	.st0{fill:#FFFFFF;}
	.st1{fill:#EA3D1B;}
	.st2{fill:#F2C32F;}
	.st3{fill:#7D208E;}
	.st4{fill:#EAB200;}
	.st5{fill:#E6005B;}
	.st6{fill:#F9E3AA;}
	.st7{fill:#73DD9D;}
	.st8{fill:#1898A5;}
	.st9{fill:#312B69;}
	.st10{clip-path:url(#SVGID_2_);fill:none;stroke:#384CC1;stroke-width:6;stroke-miterlimit:10;}
	.st11{clip-path:url(#SVGID_4_);fill:none;stroke:#384CC1;stroke-width:6;stroke-miterlimit:10;}
	.st12{clip-path:url(#SVGID_6_);}
	.st13{fill:#33CC33;}
	.st14{clip-path:url(#SVGID_8_);fill:none;stroke:#221B45;stroke-width:7;stroke-miterlimit:10;}
	.st15{clip-path:url(#SVGID_10_);fill:none;stroke:#221B45;stroke-width:7;stroke-miterlimit:10;}
	.st16{clip-path:url(#SVGID_12_);}
	.st17{fill:#DFC976;}
	.st18{clip-path:url(#SVGID_14_);fill:#E6005B;}
	.st19{clip-path:url(#SVGID_16_);fill:#EA3D1B;}
	.st20{clip-path:url(#SVGID_18_);fill:#342E6C;}
	.st21{clip-path:url(#SVGID_20_);fill:none;stroke:#EA3D1B;stroke-width:3;stroke-miterlimit:10;}
	.st22{clip-path:url(#SVGID_22_);fill:#F9E3AA;}
</style>
<path class="st0" d="M1275.9,307.5c-16,0-31.6,0-47.6,0c-0.1-1.5-0.2-2.8-0.2-4.1c0-58.4-0.2-116.7,0.1-175.1
	c0.1-12.6,1.7-25.1,2.7-37.7c0.1-0.9,0.2-1.7,0.3-3c-0.5,0.5-0.8,0.6-0.9,0.8c-6.8,19.6-17.2,37.4-27.3,55.4
	c-9.7,17.3-19.4,34.6-29,52c-1.3,2.4-2.8,3.3-5.5,3.3c-10.5-0.2-21,0-31.5-0.2c-1.4,0-3.4-1-4.1-2.2c-16.4-29.5-32.7-59-48.8-88.6
	c-3.5-6.5-5.9-13.6-9.2-20.4c0.4,2.6,0.9,5.3,1,7.9c0.7,11.7,1.9,23.4,1.9,35.1c0.2,57.4,0.1,114.7,0.1,172.1c0,1.5,0,2.9,0,4.6
	c-16.2,0-31.8,0-47.8,0c0-96.3,0-192.5,0-288.9c1.2-0.1,2.3-0.2,3.4-0.2c16,0,32,0.1,48-0.1c2.5,0,3.8,0.8,4.9,3
	c18.9,34.6,38,69.2,56.9,103.8c3.5,6.3,6.3,13,9.5,19.6c0.3-0.2,0.7-0.3,0.8-0.6c14.4-27.1,28.7-54.3,43.2-81.4
	c7.5-14,15.3-27.8,23.1-41.6c0.7-1.2,2.5-2.6,3.8-2.6c16.9-0.2,33.7-0.1,50.6-0.1c0.5,0,0.9,0.1,1.6,0.3
	C1275.9,114.9,1275.9,211,1275.9,307.5z"/>
<path class="st0" d="M653.9,88.1c18.2-22.9,36.7-45.7,54.6-68.8c-0.3-0.3-0.6-0.6-0.8-0.9c-1.2,0-2.5,0-3.7,0
	c-17.5,0-35,0.1-52.5-0.1c-2.6,0-4.3,0.8-5.9,2.9c-26.4,34.1-52.8,68.1-79.3,102.2c-3.5,4.5-7,8.9-10.5,13.4
	c-0.3-0.1-0.5-0.2-0.8-0.3c0-39.3,0-78.6,0-117.9c-16.2,0-32.1,0-48,0c0,96.5,0,192.7,0,288.9c16.2,0,32,0,48.3,0
	c0-42.9,0-85.5,0-129c1.2,1.5,1.8,2.3,2.4,3.1c30.7,41.1,61.5,82.3,92.1,123.5c1.5,2.1,3.1,2.8,5.6,2.7c17.7-0.1,35.5-0.1,53.2-0.1
	c1.1,0,2.1-0.1,4.6-0.3c-38.5-50.5-76.5-100.3-114.5-150.1C617.3,134,635.6,111.1,653.9,88.1z"/>
<path class="st0" d="M868,153.4c-15.7-7.3-32.3-12.5-48.4-19c-8.5-3.5-17.3-6.9-24.7-12.2c-19-13.3-17.2-41.8,2.7-53.6
	c7.9-4.7,16.7-6.8,25.7-7.5c27-2.3,52.1,3.8,75.4,17.4c1,0.6,2.1,1.1,4.1,2.1c0-2.3,0-3.7,0-5c0-11.7-0.7-23.5,0.2-35.2
	c0.6-8.3-2.8-12-9.8-14.9c-35.8-14.9-72.2-16.9-108.5-3c-32.3,12.4-50.5,36.3-52.8,71.4c-2.3,35.4,12.2,61.5,44.1,76.8
	c11.3,5.5,23.4,9.2,35.1,14c11.3,4.6,23,8.6,33.7,14.4c23.4,12.7,19.5,44.8,0.9,56.6c-12,7.6-25.3,9.9-39.1,9.6
	c-25.8-0.5-49.6-8.3-71.9-21c-1-0.6-2.1-0.9-3.8-1.6c0,2.1,0,3.4,0,4.7c0,12.4,0.5,24.8-0.2,37.1c-0.3,6.7,2.1,10.1,7.8,12.7
	c34.5,15.9,70.2,19.7,107,10c18.8-4.9,35.2-14.4,47.4-29.9c18.4-23.2,21.5-49.7,14.9-77.7C902.7,177.7,888,162.7,868,153.4z"/>
<path class="st0" d="M303.3,18.5c-16.1,0-31.9,0-47.9,0c0,60.1,0,119.8,0,179.5c16.1,0,32,0,47.9,0
	C303.3,138.1,303.3,78.4,303.3,18.5z"/>
<path class="st0" d="M441.3,18.5c-16.3,0-32.1,0-48.4,0c0,1.8,0,3.4,0,5c0,60.9,0,121.7-0.1,182.6c0,4.4-0.1,8.7-0.4,13.1
	c-1.7,23.9-14.6,38.8-38,43.6c-12.8,2.6-25.6,2-38.4,0.2c-19-2.8-36.7-9.5-53.7-18c-2.1-1-4.2-2-6.6-3.2c-0.3,1.2-0.5,1.5-0.5,1.9
	c0,15.4-0.1,30.7,0,46.1c0,1.1,1.2,2.7,2.3,3.2c36.5,18.6,74.8,24.3,114.9,15.6c23.4-5.1,42.5-17.1,55.1-38
	c10.3-17.1,13.8-36,13.8-55.7c0.1-64.1,0-128.2,0-192.3C441.3,21.4,441.3,20,441.3,18.5z"/>
<path class="st1" d="M1223.6,18.4c-1.3,0-3.1,1.4-3.8,2.6c-7.8,13.8-15.6,27.6-23.1,41.6c-14.5,27.1-28.8,54.2-43.2,81.4
	c-0.1,0.3-0.5,0.4-0.8,0.6c-3.2-6.6-6.1-13.3-9.5-19.6c-18.9-34.6-38-69.2-56.9-103.8c-1.2-2.1-2.4-3-4.9-3c-16,0.1-32,0.1-48,0.1
	c-1.1,0-2.2,0.1-3.4,0.2c0,96.4,0,192.6,0,288.9c15.9,0,31.6,0,47.8,0c0-1.7,0-3.1,0-4.6c0-57.4,0.1-114.7-0.1-172.1
	c0-11.7-1.2-23.4-1.9-35.1c-0.2-2.6-0.7-5.3-1-7.9c3.3,6.8,5.7,13.9,9.2,20.4c16.1,29.6,32.4,59.1,48.8,88.6
	c0.6,1.2,2.7,2.1,4.1,2.2c10.5,0.2,21,0,31.5,0.2c2.7,0,4.2-0.9,5.5-3.3c9.6-17.4,19.3-34.7,29-52c10.1-18,20.5-35.8,27.3-55.4
	c0.1-0.2,0.4-0.4,0.9-0.8c-0.1,1.3-0.2,2.1-0.3,3c-0.9,12.6-2.6,25.1-2.7,37.7c-0.3,58.4-0.1,116.7-0.1,175.1c0,1.3,0.1,2.6,0.2,4.1
	c16,0,31.6,0,47.6,0c0-96.5,0-192.6,0-288.9c-0.7-0.1-1.2-0.3-1.6-0.3C1257.4,18.3,1240.5,18.3,1223.6,18.4z"/>
<path class="st0" d="M1535.1,18.5c-16.2,0-32,0-48.3,0c0,2,0,3.5,0,4.9c0,59.6,0,119.2-0.1,178.8c0,7.6-0.4,15.3-1.7,22.7
	c-3.2,19.2-13.6,32.5-33.2,37.2c-13.4,3.2-27,3.2-40.5-0.1c-16.4-4-27.1-14.4-31.1-30.7c-2.1-8.8-3.1-18-3.2-27
	c-0.3-60.4-0.1-120.7-0.1-181.1c0-1.6,0-3.1,0-4.7c-16.5,0-32.4,0-48.5,0c0,1.4,0,2.6,0,3.7c0,63-0.2,126,0.1,189
	c0.1,10.9,1.4,22,3.6,32.7c6.2,29.6,22.7,51.3,52,61.2c30.1,10.2,60.8,10.2,91.1,1.4c27.5-8,45.3-26.4,53.9-53.7
	c4.5-14.2,6-28.8,6-43.6c0.1-62.2,0-124.5,0-186.7C1535.3,21.3,1535.2,19.9,1535.1,18.5z"/>
<path class="st0" d="M2218.6,18.6c-16.4,0-32.3,0-48.5,0c0,1.8,0,3.3,0,4.7c0,59.9,0,119.7-0.1,179.6c0,7.6-0.5,15.3-1.8,22.7
	c-3.5,20.8-15.6,33.2-36.2,37.3c-11.1,2.2-22.4,2.1-33.5,0c-19.9-3.7-32-15.7-35.9-35.4c-1.5-7.5-2.2-15.4-2.2-23.1
	c-0.2-60.4-0.1-120.7-0.1-181.1c0-1.6,0-3.2,0-5c-16.3,0-32.1,0-48.5,0c0,1.8,0,3.3,0,4.8c0,62.1-0.2,124.2,0.2,186.3
	c0.1,11.4,1.3,23,3.6,34.2c6.3,30.4,23.5,52.2,53.6,61.9c29.6,9.5,59.6,9.5,89.4,0.9c28.4-8.3,46.3-27.4,54.6-55.7
	c3.9-13.4,5.4-27.2,5.4-41.1c0.1-62.2,0-124.5,0-186.7C2218.6,21.6,2218.6,20.2,2218.6,18.6z"/>
<path class="st0" d="M1802.4,307.4c55.8,0,111.2,0,166.7,0c0-15.5,0-30.7,0-46.3c-39.6,0-78.9,0-118.3,0c0-26.9,0-53.5,0-80.3
	c38,0,75.7,0,113.6,0c0-15.6,0-30.9,0-46.5c-38.1,0-75.9,0-113.6,0c0-23.3,0-46.3,0-69.6c39.6,0,78.9,0,118.3,0
	c0-15.6,0-30.8,0-46.2c-55.7,0-111.1,0-166.7,0C1802.4,115,1802.4,211.2,1802.4,307.4z"/>
<path class="st2" d="M193.6,137.2c4.6-19.9,4.3-39.9-0.9-59.7c-6.5-24.8-22.2-41.4-46.1-50.5c-13-4.9-26.5-7.8-40.2-8
	C74,18.4,41.7,18.5,9.3,18.3c-0.6,0-1.2,0.1-1.9,0.2c0,96.6,0,192.8,0,288.9c16.2,0,32,0,48.4,0c0-35.7,0-71.3,0-106.7
	c19.8-0.4,39.1-0.9,59.1-1.3c0.1,0.1,0.5,1.3,1,2.4c13.2,34,26.5,67.9,39.7,101.9c1.2,3.1,2.7,4.1,5.9,4c14.6-0.2,29.2-0.1,43.9-0.1
	c1.3,0,2.6-0.1,4.7-0.2c-17.2-41.5-34-82.4-51-123.3C177.7,173.4,188.9,157.6,193.6,137.2z M145.3,120.5
	c-2.1,15.9-12.1,25.6-27.1,30.2c-20.4,6.3-41.3,3.7-62.3,4.2c0-30.3,0-60.1,0-90.1c0.6-0.1,1.1-0.4,1.7-0.4
	c15.5,0.3,31,0.3,46.4,1.3c6.7,0.5,13.5,2.6,19.8,5.1c11.6,4.6,19,13.5,20.9,25.9C146,104.5,146.3,112.7,145.3,120.5z"/>
<path class="st3" d="M2011.8,18.5c16.4,0,32.2,0,48.5,0c0,1.8,0,3.4,0,5c0,60.4-0.1,120.7,0.1,181.1c0,7.7,0.7,15.5,2.2,23.1
	c3.9,19.7,16.1,31.7,35.9,35.4c11.2,2.1,22.4,2.2,33.5,0c20.6-4.1,32.8-16.6,36.2-37.3c1.2-7.5,1.7-15.2,1.8-22.7
	c0.1-59.9,0.1-119.7,0.1-179.6c0-1.5,0-3,0-4.7c16.2,0,32.1,0,48.5,0c0,1.6,0,3,0,4.5c0,62.2,0.1,124.5,0,186.7
	c0,13.9-1.5,27.7-5.4,41.1c-8.3,28.3-26.2,47.5-54.6,55.7c-29.7,8.7-59.8,8.6-89.4-0.9c-30.1-9.7-47.3-31.5-53.6-61.9
	c-2.3-11.2-3.6-22.8-3.6-34.2c-0.3-62.1-0.2-124.2-0.2-186.3C2011.8,21.8,2011.8,20.4,2011.8,18.5z"/>
<path class="st4" d="M1486.8,18.5c16.3,0,32.1,0,48.3,0c0.1,1.4,0.2,2.7,0.2,4.1c0,62.2,0.1,124.5,0,186.7c0,14.8-1.5,29.4-6,43.6
	c-8.6,27.3-26.4,45.7-53.9,53.7c-30.4,8.8-61.1,8.8-91.1-1.4c-29.2-9.9-45.8-31.6-52-61.2c-2.2-10.7-3.6-21.8-3.6-32.7
	c-0.3-63-0.1-126-0.1-189c0-1.1,0-2.2,0-3.7c16.1,0,32,0,48.5,0c0,1.6,0,3.2,0,4.7c0,60.4-0.1,120.7,0.1,181.1c0,9,1.1,18.3,3.2,27
	c4,16.3,14.7,26.6,31.1,30.7c13.4,3.3,27,3.4,40.5,0.1c19.6-4.7,29.9-18,33.2-37.2c1.3-7.5,1.6-15.2,1.7-22.7
	c0.1-59.6,0.1-119.2,0.1-178.8C1486.8,22,1486.8,20.5,1486.8,18.5z"/>
<path class="st5" d="M507.1,18.5c15.9,0,31.7,0,48,0c0,39.4,0,78.7,0,117.9c0.3,0.1,0.5,0.2,0.8,0.3c3.5-4.5,7-8.9,10.5-13.4
	c26.4-34,52.9-68.1,79.3-102.2c1.6-2.1,3.3-2.9,5.9-2.9c17.5,0.1,35,0.1,52.5,0.1c1.2,0,2.5,0,3.7,0c0.3,0.3,0.6,0.6,0.8,0.9
	C690.7,42.3,672.2,65.1,654,88c-18.3,23-36.6,45.9-55.1,69.1c38,49.9,76,99.6,114.5,150.1c-2.4,0.2-3.5,0.3-4.6,0.3
	c-17.7,0-35.5,0-53.2,0.1c-2.5,0-4.1-0.7-5.6-2.7c-30.6-41.2-61.4-82.3-92.1-123.5c-0.6-0.8-1.2-1.5-2.4-3.1c0,43.4,0,86.1,0,129
	c-16.3,0-32.1,0-48.3,0C507.1,211.2,507.1,115,507.1,18.5z"/>
<path class="st6" d="M1802.4,18.5c55.6,0,111,0,166.7,0c0,15.4,0,30.6,0,46.2c-39.4,0-78.7,0-118.3,0c0,23.3,0,46.3,0,69.6
	c37.8,0,75.6,0,113.6,0c0,15.7,0,30.9,0,46.5c-37.9,0-75.6,0-113.6,0c0,26.9,0,53.4,0,80.3c39.4,0,78.7,0,118.3,0
	c0,15.6,0,30.8,0,46.3c-55.5,0-110.9,0-166.7,0C1802.4,211.2,1802.4,115,1802.4,18.5z"/>
<path class="st7" d="M1747.2,80.5c-1.9-0.9-3-1.3-4-1.9c-23.3-13.6-48.4-19.7-75.4-17.4c-9,0.7-17.8,2.8-25.7,7.5
	c-20.1,12-21.8,40.4-2.6,53.8c7.4,5.1,16,8.6,24.4,12c12.8,5.2,26.1,9.4,39,14.4c11.1,4.4,21.3,10.4,30.2,18.6
	c13.9,12.8,20.5,29,21.9,47.5c2,24.6-3.3,47-20.1,65.8c-13.7,15.4-31.4,24.3-51.2,28.5c-34.7,7.3-68.3,3.3-100.5-11.7
	c-5.8-2.7-8.2-6-7.9-12.7c0.6-13.7,0.2-27.5,0.2-41.8c1.5,0.6,2.7,0.9,3.7,1.5c22.3,12.7,46.1,20.5,71.9,21
	c13.6,0.3,26.8-2,38.8-9.3c19-11.6,23.1-44.1-0.7-57.1c-9.3-5.1-19.3-8.7-29.1-12.6c-13.2-5.3-26.8-9.7-39.7-15.6
	c-17.8-8.2-32-20.8-38.7-39.8c-12.2-34.6-7.6-87.3,48-108.5c36.9-14.1,73.9-11.9,110.2,4c5.7,2.5,8.2,5.7,7.8,12.4
	c-0.7,12.3-0.2,24.7-0.2,37.1C1747.2,77.1,1747.2,78.3,1747.2,80.5z"/>
<path class="st8" d="M902.8,80.6c-2-1-3.1-1.5-4.1-2.1c-23.4-13.6-48.5-19.6-75.5-17.4c-9,0.8-17.8,2.8-25.7,7.5
	c-19.9,11.8-21.7,40.3-2.7,53.6c7.4,5.2,16.2,8.7,24.7,12.2c16,6.6,32.7,11.8,48.4,19c20,9.3,34.7,24.2,40,46.4
	c6.6,28,3.5,54.5-14.9,77.7c-12.2,15.4-28.6,24.9-47.4,29.9c-36.8,9.7-72.5,5.9-107-10c-5.8-2.7-8.2-6.1-7.8-12.7
	c0.6-12.3,0.2-24.7,0.2-37.1c0-1.3,0-2.7,0-4.7c1.7,0.7,2.8,1.1,3.8,1.6c22.3,12.7,46.1,20.5,71.9,21c13.8,0.3,27.1-2.1,39.1-9.6
	c18.6-11.8,22.5-43.9-0.9-56.6c-10.7-5.8-22.4-9.8-33.7-14.4c-11.7-4.7-23.8-8.5-35.1-14c-31.9-15.4-46.4-41.4-44.1-76.8
	c2.3-35.2,20.5-59.1,52.8-71.5c36.3-13.9,72.6-11.9,108.5,2.9c7,2.9,10.4,6.6,9.8,14.9c-0.9,11.7-0.2,23.5-0.2,35.2
	C902.8,76.9,902.8,78.2,902.8,80.6z"/>
<path class="st9" d="M255.6,241.8c2.5,1.2,4.6,2.1,6.6,3.2c17.1,8.5,34.8,15.2,53.7,18c12.8,1.9,25.6,2.5,38.4-0.2
	c23.4-4.8,36.4-19.7,38-43.6c0.3-4.4,0.4-8.7,0.4-13.1c0-60.9,0-121.7,0.1-182.6c0-1.6,0-3.2,0-5c16.3,0,32.1,0,48.4,0
	c0,1.5,0,2.8,0,4.1c0,64.1,0.1,128.2,0,192.3c0,19.6-3.5,38.6-13.8,55.7c-12.6,20.9-31.7,33-55.1,38c-40.1,8.7-78.4,3-114.9-15.6
	c-1.1-0.5-2.3-2.1-2.3-3.2c-0.1-15.4-0.1-30.7,0-46.1C255.1,243.3,255.3,243,255.6,241.8z"/>
<path class="st9" d="M255.4,18.5c16,0,31.8,0,47.9,0c0,59.9,0,119.6,0,179.5c-15.9,0-31.7,0-47.9,0
	C255.4,138.3,255.4,78.6,255.4,18.5z"/>
<g>
	<defs>
		<path id="SVGID_1_" d="M1223.6,18c-1.3,0-3.1,1.4-3.8,2.6c-7.8,13.8-15.6,27.6-23.1,41.6c-14.5,27.1-28.8,54.2-43.2,81.4
			c-0.1,0.3-0.5,0.4-0.8,0.6c-3.2-6.6-6.1-13.3-9.5-19.6c-18.9-34.6-38-69.2-56.9-103.8c-1.2-2.1-2.4-3-4.9-3c-16,0.1-32,0.1-48,0.1
			c-1.1,0-2.2,0.1-3.4,0.2c0,96.4,0,192.6,0,288.9c15.9,0,31.6,0,47.8,0c0-1.7,0-3.1,0-4.6c0-57.4,0.1-114.7-0.1-172.1
			c0-11.7-1.2-23.4-1.9-35.1c-0.2-2.6-0.7-5.3-1-7.9c3.3,6.8,5.7,13.9,9.2,20.4c16.1,29.6,32.4,59.1,48.8,88.6
			c0.6,1.2,2.7,2.1,4.1,2.2c10.5,0.2,21,0,31.5,0.2c2.7,0,4.2-0.9,5.5-3.3c9.6-17.4,19.3-34.7,29-52c10.1-18,20.5-35.8,27.3-55.4
			c0.1-0.2,0.4-0.4,0.9-0.8c-0.1,1.3-0.2,2.1-0.3,3c-0.9,12.6-2.6,25.1-2.7,37.7c-0.3,58.4-0.1,116.7-0.1,175.1
			c0,1.3,0.1,2.6,0.2,4.1c16,0,31.6,0,47.6,0c0-96.5,0-192.6,0-288.9c-0.7-0.1-1.2-0.3-1.6-0.3C1257.4,17.9,1240.5,17.9,1223.6,18z"
			/>
	</defs>
	<clipPath id="SVGID_2_">
		<use xlink:href="#SVGID_1_"  style="overflow:visible;"/>
	</clipPath>
	<line class="st10" x1="809.5" y1="127.3" x2="1082.5" y2="-195"/>
	<line class="st10" x1="823.2" y1="141" x2="1096.2" y2="-181.3"/>
	<line class="st10" x1="838.5" y1="156.4" x2="1111.6" y2="-165.9"/>
	<line class="st10" x1="853.9" y1="171.8" x2="1127" y2="-150.5"/>
	<line class="st10" x1="869.3" y1="187.2" x2="1142.3" y2="-135.1"/>
	<line class="st10" x1="884.7" y1="202.6" x2="1157.7" y2="-119.7"/>
	<line class="st10" x1="900.1" y1="218" x2="1173.1" y2="-104.3"/>
	<line class="st10" x1="915.5" y1="233.4" x2="1188.5" y2="-88.9"/>
	<line class="st10" x1="930.9" y1="248.8" x2="1203.9" y2="-73.5"/>
	<line class="st10" x1="946.3" y1="264.1" x2="1219.3" y2="-58.1"/>
	<line class="st10" x1="961.7" y1="279.5" x2="1234.7" y2="-42.8"/>
	<line class="st10" x1="977.1" y1="294.9" x2="1250.1" y2="-27.4"/>
	<line class="st10" x1="992.5" y1="310.3" x2="1265.5" y2="-12"/>
	<line class="st10" x1="1007.8" y1="325.7" x2="1280.9" y2="3.4"/>
	<line class="st10" x1="1023.2" y1="341.1" x2="1296.3" y2="18.8"/>
	<line class="st10" x1="1038.6" y1="356.5" x2="1311.6" y2="34.2"/>
	<line class="st10" x1="1054" y1="371.9" x2="1327" y2="49.6"/>
	<line class="st10" x1="1069.4" y1="387.3" x2="1342.4" y2="65"/>
	<line class="st10" x1="1084.8" y1="402.7" x2="1357.8" y2="80.4"/>
	<line class="st10" x1="1100.2" y1="418.1" x2="1373.2" y2="95.8"/>
	<line class="st10" x1="1115.6" y1="433.4" x2="1388.6" y2="111.2"/>
	<line class="st10" x1="1131" y1="448.8" x2="1404" y2="126.5"/>
	<line class="st10" x1="1146.4" y1="464.2" x2="1419.4" y2="141.9"/>
	<line class="st10" x1="1161.7" y1="479.6" x2="1434.8" y2="157.3"/>
	<line class="st10" x1="1177.1" y1="495" x2="1450.2" y2="172.7"/>
	<line class="st10" x1="1192.5" y1="510.4" x2="1465.6" y2="188.1"/>
	<line class="st10" x1="1207.9" y1="525.8" x2="1480.9" y2="203.5"/>
	<line class="st10" x1="1223.3" y1="541.2" x2="1496.3" y2="218.9"/>
	<use xlink:href="#SVGID_1_"  style="overflow:visible;fill:none;stroke:#384CC1;stroke-miterlimit:10;"/>
</g>
<path class="st0" d="M2535.2,307.5c-16,0-31.6,0-47.6,0c-0.1-1.5-0.2-2.8-0.2-4.1c0-58.4-0.2-116.7,0.1-175.1
	c0.1-12.6,1.7-25.1,2.7-37.7c0.1-0.9,0.2-1.7,0.3-3c-0.5,0.5-0.8,0.6-0.9,0.8c-6.8,19.6-17.2,37.4-27.3,55.4
	c-9.7,17.3-19.4,34.6-29,52c-1.3,2.4-2.8,3.3-5.5,3.3c-10.5-0.2-21,0-31.5-0.2c-1.4,0-3.4-1-4.1-2.2c-16.4-29.5-32.7-59-48.8-88.6
	c-3.5-6.5-5.9-13.6-9.2-20.4c0.4,2.6,0.9,5.3,1,7.9c0.7,11.7,1.9,23.4,1.9,35.1c0.2,57.4,0.1,114.7,0.1,172.1c0,1.5,0,2.9,0,4.6
	c-16.2,0-31.8,0-47.8,0c0-96.3,0-192.5,0-288.9c1.2-0.1,2.3-0.2,3.4-0.2c16,0,32,0.1,48-0.1c2.5,0,3.8,0.8,4.9,3
	c18.9,34.6,38,69.2,56.9,103.8c3.5,6.3,6.3,13,9.5,19.6c0.3-0.2,0.7-0.3,0.8-0.6c14.4-27.1,28.7-54.3,43.2-81.4
	c7.5-14,15.3-27.8,23.1-41.6c0.7-1.2,2.5-2.6,3.8-2.6c16.9-0.2,33.7-0.1,50.6-0.1c0.5,0,0.9,0.1,1.6,0.3
	C2535.2,114.9,2535.2,211,2535.2,307.5z"/>
<path class="st1" d="M2482.9,18.4c-1.3,0-3.1,1.4-3.8,2.6c-7.8,13.8-15.6,27.6-23.1,41.6c-14.5,27.1-28.8,54.2-43.2,81.4
	c-0.1,0.3-0.5,0.4-0.8,0.6c-3.2-6.6-6.1-13.3-9.5-19.6c-18.9-34.6-38-69.2-56.9-103.8c-1.2-2.1-2.4-3-4.9-3c-16,0.1-32,0.1-48,0.1
	c-1.1,0-2.2,0.1-3.4,0.2c0,96.4,0,192.6,0,288.9c15.9,0,31.6,0,47.8,0c0-1.7,0-3.1,0-4.6c0-57.4,0.1-114.7-0.1-172.1
	c0-11.7-1.2-23.4-1.9-35.1c-0.2-2.6-0.7-5.3-1-7.9c3.3,6.8,5.7,13.9,9.2,20.4c16.1,29.6,32.4,59.1,48.8,88.6
	c0.6,1.2,2.7,2.1,4.1,2.2c10.5,0.2,21,0,31.5,0.2c2.7,0,4.2-0.9,5.5-3.3c9.6-17.4,19.3-34.7,29-52c10.1-18,20.5-35.8,27.3-55.4
	c0.1-0.2,0.4-0.4,0.9-0.8c-0.1,1.3-0.2,2.1-0.3,3c-0.9,12.6-2.6,25.1-2.7,37.7c-0.3,58.4-0.1,116.7-0.1,175.1c0,1.3,0.1,2.6,0.2,4.1
	c16,0,31.6,0,47.6,0c0-96.5,0-192.6,0-288.9c-0.7-0.1-1.2-0.3-1.6-0.3C2516.7,18.3,2499.8,18.3,2482.9,18.4z"/>
<g>
	<defs>
		<path id="SVGID_3_" d="M2482.9,18c-1.3,0-3.1,1.4-3.8,2.6c-7.8,13.8-15.6,27.6-23.1,41.6c-14.5,27.1-28.8,54.2-43.2,81.4
			c-0.1,0.3-0.5,0.4-0.8,0.6c-3.2-6.6-6.1-13.3-9.5-19.6c-18.9-34.6-38-69.2-56.9-103.8c-1.2-2.1-2.4-3-4.9-3c-16,0.1-32,0.1-48,0.1
			c-1.1,0-2.2,0.1-3.4,0.2c0,96.4,0,192.6,0,288.9c15.9,0,31.6,0,47.8,0c0-1.7,0-3.1,0-4.6c0-57.4,0.1-114.7-0.1-172.1
			c0-11.7-1.2-23.4-1.9-35.1c-0.2-2.6-0.7-5.3-1-7.9c3.3,6.8,5.7,13.9,9.2,20.4c16.1,29.6,32.4,59.1,48.8,88.6
			c0.6,1.2,2.7,2.1,4.1,2.2c10.5,0.2,21,0,31.5,0.2c2.7,0,4.2-0.9,5.5-3.3c9.6-17.4,19.3-34.7,29-52c10.1-18,20.5-35.8,27.3-55.4
			c0.1-0.2,0.4-0.4,0.9-0.8c-0.1,1.3-0.2,2.1-0.3,3c-0.9,12.6-2.6,25.1-2.7,37.7c-0.3,58.4-0.1,116.7-0.1,175.1
			c0,1.3,0.1,2.6,0.2,4.1c16,0,31.6,0,47.6,0c0-96.5,0-192.6,0-288.9c-0.7-0.1-1.2-0.3-1.6-0.3C2516.7,17.9,2499.8,17.9,2482.9,18z"
			/>
	</defs>
	<clipPath id="SVGID_4_">
		<use xlink:href="#SVGID_3_"  style="overflow:visible;"/>
	</clipPath>
	<line class="st11" x1="2068.8" y1="127.3" x2="2341.8" y2="-195"/>
	<line class="st11" x1="2082.5" y1="141" x2="2355.5" y2="-181.3"/>
	<line class="st11" x1="2097.8" y1="156.4" x2="2370.9" y2="-165.9"/>
	<line class="st11" x1="2113.2" y1="171.8" x2="2386.3" y2="-150.5"/>
	<line class="st11" x1="2128.6" y1="187.2" x2="2401.6" y2="-135.1"/>
	<line class="st11" x1="2144" y1="202.6" x2="2417" y2="-119.7"/>
	<line class="st11" x1="2159.4" y1="218" x2="2432.4" y2="-104.3"/>
	<line class="st11" x1="2174.8" y1="233.4" x2="2447.8" y2="-88.9"/>
	<line class="st11" x1="2190.2" y1="248.8" x2="2463.2" y2="-73.5"/>
	<line class="st11" x1="2205.6" y1="264.1" x2="2478.6" y2="-58.1"/>
	<line class="st11" x1="2221" y1="279.5" x2="2494" y2="-42.8"/>
	<line class="st11" x1="2236.4" y1="294.9" x2="2509.4" y2="-27.4"/>
	<line class="st11" x1="2251.8" y1="310.3" x2="2524.8" y2="-12"/>
	<line class="st11" x1="2267.1" y1="325.7" x2="2540.2" y2="3.4"/>
	<line class="st11" x1="2282.5" y1="341.1" x2="2555.6" y2="18.8"/>
	<line class="st11" x1="2297.9" y1="356.5" x2="2570.9" y2="34.2"/>
	<line class="st11" x1="2313.3" y1="371.9" x2="2586.3" y2="49.6"/>
	<line class="st11" x1="2328.7" y1="387.3" x2="2601.7" y2="65"/>
	<line class="st11" x1="2344.1" y1="402.7" x2="2617.1" y2="80.4"/>
	<line class="st11" x1="2359.5" y1="418.1" x2="2632.5" y2="95.8"/>
	<line class="st11" x1="2374.9" y1="433.4" x2="2647.9" y2="111.2"/>
	<line class="st11" x1="2390.3" y1="448.8" x2="2663.3" y2="126.5"/>
	<line class="st11" x1="2405.7" y1="464.2" x2="2678.7" y2="141.9"/>
	<line class="st11" x1="2421" y1="479.6" x2="2694.1" y2="157.3"/>
	<line class="st11" x1="2436.4" y1="495" x2="2709.5" y2="172.7"/>
	<line class="st11" x1="2451.8" y1="510.4" x2="2724.9" y2="188.1"/>
	<line class="st11" x1="2467.2" y1="525.8" x2="2740.2" y2="203.5"/>
	<line class="st11" x1="2482.6" y1="541.2" x2="2755.6" y2="218.9"/>
	<use xlink:href="#SVGID_3_"  style="overflow:visible;fill:none;stroke:#384CC1;stroke-miterlimit:10;"/>
</g>
<g>
	<defs>
		<path id="SVGID_5_" d="M193.6,136.6c4.6-19.9,4.3-39.9-0.9-59.7c-6.5-24.8-22.2-41.4-46.1-50.5c-13-4.9-26.5-7.8-40.2-8
			C74,17.8,41.7,17.9,9.3,17.7c-0.6,0-1.2,0.1-1.9,0.2c0,96.6,0,192.8,0,288.9c16.2,0,32,0,48.4,0c0-35.7,0-71.3,0-106.7
			c19.8-0.4,39.1-0.9,59.1-1.3c0.1,0.1,0.5,1.3,1,2.4c13.2,34,26.5,67.9,39.7,101.9c1.2,3.1,2.7,4.1,5.9,4
			c14.6-0.2,29.2-0.1,43.9-0.1c1.3,0,2.6-0.1,4.7-0.2c-17.2-41.5-34-82.4-51-123.3C177.7,172.8,188.9,157,193.6,136.6z M145.3,119.9
			c-2.1,15.9-12.1,25.6-27.1,30.2c-20.4,6.3-41.3,3.7-62.3,4.2c0-30.3,0-60.1,0-90.1c0.6-0.1,1.1-0.4,1.7-0.4
			c15.5,0.3,31,0.3,46.4,1.3c6.7,0.5,13.5,2.6,19.8,5.1c11.6,4.6,19,13.5,20.9,25.9C146,103.9,146.3,112.1,145.3,119.9z"/>
	</defs>
	<clipPath id="SVGID_6_">
		<use xlink:href="#SVGID_5_"  style="overflow:visible;"/>
	</clipPath>
	<g class="st12">
		<circle class="st13" cx="17.1" cy="292.5" r="14.3"/>
		<circle class="st13" cx="63.4" cy="292.5" r="14.3"/>
		<circle class="st13" cx="109.7" cy="292.5" r="14.3"/>
		<circle class="st13" cx="156" cy="292.5" r="14.3"/>
		<circle class="st13" cx="202.3" cy="292.5" r="14.3"/>
		<circle class="st13" cx="248.6" cy="292.5" r="14.3"/>
		<circle class="st13" cx="-19.9" cy="255.5" r="14.3"/>
		<circle class="st13" cx="26.4" cy="255.5" r="14.3"/>
		<circle class="st13" cx="72.7" cy="255.5" r="14.3"/>
		<circle class="st13" cx="119" cy="255.5" r="14.3"/>
		<circle class="st13" cx="165.3" cy="255.5" r="14.3"/>
		<circle class="st13" cx="211.6" cy="255.5" r="14.3"/>
		<circle class="st13" cx="17.4" cy="218.3" r="14.3"/>
		<circle class="st13" cx="63.6" cy="218.3" r="14.3"/>
		<circle class="st13" cx="109.9" cy="218.3" r="14.3"/>
		<circle class="st13" cx="156.2" cy="218.3" r="14.3"/>
		<circle class="st13" cx="202.5" cy="218.3" r="14.3"/>
		<circle class="st13" cx="248.8" cy="218.3" r="14.3"/>
		<circle class="st13" cx="-6.3" cy="181" r="14.3"/>
		<circle class="st13" cx="40" cy="181" r="14.3"/>
		<circle class="st13" cx="86.3" cy="181" r="14.3"/>
		<circle class="st13" cx="132.6" cy="181" r="14.3"/>
		<circle class="st13" cx="178.9" cy="181" r="14.3"/>
		<circle class="st13" cx="225.1" cy="181" r="14.3"/>
		<circle class="st13" cx="-43.3" cy="144" r="14.3"/>
		<circle class="st13" cx="3" cy="144" r="14.3"/>
		<circle class="st13" cx="49.3" cy="144" r="14.3"/>
		<circle class="st13" cx="95.6" cy="144" r="14.3"/>
		<circle class="st13" cx="141.9" cy="144" r="14.3"/>
		<circle class="st13" cx="188.1" cy="144" r="14.3"/>
		<circle class="st13" cx="-6.1" cy="106.8" r="14.3"/>
		<circle class="st13" cx="40.2" cy="106.8" r="14.3"/>
		<circle class="st13" cx="86.5" cy="106.8" r="14.3"/>
		<circle class="st13" cx="132.8" cy="106.8" r="14.3"/>
		<circle class="st13" cx="179.1" cy="106.8" r="14.3"/>
		<circle class="st13" cx="225.4" cy="106.8" r="14.3"/>
		<circle class="st13" cx="-43.3" cy="69.6" r="14.3"/>
		<circle class="st13" cx="3" cy="69.6" r="14.3"/>
		<circle class="st13" cx="49.3" cy="69.6" r="14.3"/>
		<circle class="st13" cx="95.6" cy="69.6" r="14.3"/>
		<circle class="st13" cx="141.9" cy="69.6" r="14.3"/>
		<circle class="st13" cx="188.1" cy="69.6" r="14.3"/>
		<circle class="st13" cx="-6.1" cy="32.4" r="14.3"/>
		<circle class="st13" cx="40.2" cy="32.4" r="14.3"/>
		<circle class="st13" cx="86.5" cy="32.4" r="14.3"/>
		<circle class="st13" cx="132.8" cy="32.4" r="14.3"/>
		<circle class="st13" cx="179.1" cy="32.4" r="14.3"/>
		<circle class="st13" cx="225.4" cy="32.4" r="14.3"/>
	</g>
</g>
<g>
	<defs>
		<path id="SVGID_7_" d="M255.6,241.8c2.5,1.2,4.6,2.1,6.6,3.2c17.1,8.5,34.8,15.2,53.7,18c12.8,1.9,25.6,2.5,38.4-0.2
			c23.4-4.8,36.4-19.7,38-43.6c0.3-4.4,0.4-8.7,0.4-13.1c0-60.9,0-121.7,0.1-182.6c0-1.6,0-3.2,0-5c16.3,0,32.1,0,48.4,0
			c0,1.5,0,2.8,0,4.1c0,64.1,0.1,128.2,0,192.3c0,19.6-3.5,38.6-13.8,55.7c-12.6,20.9-31.7,33-55.1,38c-40.1,8.7-78.4,3-114.9-15.6
			c-1.1-0.5-2.3-2.1-2.3-3.2c-0.1-15.4-0.1-30.7,0-46.1C255.1,243.3,255.3,243,255.6,241.8z"/>
	</defs>
	<clipPath id="SVGID_8_">
		<use xlink:href="#SVGID_7_"  style="overflow:visible;"/>
	</clipPath>
	<line class="st14" x1="256.1" y1="291.1" x2="386.3" y2="-21.7"/>
	<line class="st14" x1="273.4" y1="309.3" x2="403.6" y2="-3.4"/>
	<line class="st14" x1="290.7" y1="327.6" x2="420.9" y2="14.8"/>
	<line class="st14" x1="307.9" y1="345.8" x2="438.1" y2="33.1"/>
	<line class="st14" x1="325.2" y1="364.1" x2="455.4" y2="51.3"/>
	<line class="st14" x1="342.5" y1="382.3" x2="472.7" y2="69.6"/>
	<line class="st14" x1="359.7" y1="400.6" x2="489.9" y2="87.8"/>
	<line class="st14" x1="377" y1="418.8" x2="507.2" y2="106.1"/>
	<line class="st14" x1="394.3" y1="437.1" x2="524.5" y2="124.3"/>
</g>
<g>
	<defs>
		<path id="SVGID_9_" d="M255.4,18.5c16,0,31.8,0,47.9,0c0,59.9,0,119.6,0,179.5c-15.9,0-31.7,0-47.9,0
			C255.4,138.3,255.4,78.6,255.4,18.5z"/>
	</defs>
	<clipPath id="SVGID_10_">
		<use xlink:href="#SVGID_9_"  style="overflow:visible;"/>
	</clipPath>
	<line class="st15" x1="135.2" y1="163.3" x2="265.4" y2="-149.4"/>
	<line class="st15" x1="152.5" y1="181.6" x2="282.7" y2="-131.2"/>
	<line class="st15" x1="169.8" y1="199.8" x2="300" y2="-112.9"/>
	<line class="st15" x1="187" y1="218.1" x2="317.3" y2="-94.7"/>
	<line class="st15" x1="204.3" y1="236.3" x2="334.5" y2="-76.4"/>
	<line class="st15" x1="221.6" y1="254.6" x2="351.8" y2="-58.2"/>
	<line class="st15" x1="238.9" y1="272.8" x2="369.1" y2="-39.9"/>
</g>
<g>
	<defs>
		<path id="SVGID_11_" d="M507.1,18c15.9,0,31.7,0,48,0c0,39.4,0,78.7,0,117.9c0.3,0.1,0.5,0.2,0.8,0.3c3.5-4.5,7-8.9,10.5-13.4
			c26.4-34,52.9-68.1,79.3-102.2c1.6-2.1,3.3-2.9,5.9-2.9c17.5,0.1,35,0.1,52.5,0.1c1.2,0,2.5,0,3.7,0c0.3,0.3,0.6,0.6,0.8,0.9
			c-17.9,23.1-36.4,45.9-54.6,68.8c-18.3,23-36.6,45.9-55.1,69.1c38,49.9,76,99.6,114.5,150.1c-2.4,0.2-3.5,0.3-4.6,0.3
			c-17.7,0-35.5,0-53.2,0.1c-2.5,0-4.1-0.7-5.6-2.7c-30.6-41.2-61.4-82.3-92.1-123.5c-0.6-0.8-1.2-1.5-2.4-3.1c0,43.4,0,86.1,0,129
			c-16.3,0-32.1,0-48.3,0C507.1,210.7,507.1,114.5,507.1,18z"/>
	</defs>
	<clipPath id="SVGID_12_">
		<use xlink:href="#SVGID_11_"  style="overflow:visible;"/>
	</clipPath>
	<g class="st16">
		<g>
			<circle class="st17" cx="516.1" cy="292.5" r="14.3"/>
			<circle class="st17" cx="562.3" cy="292.5" r="14.3"/>
			<circle class="st17" cx="608.6" cy="292.5" r="14.3"/>
			<circle class="st17" cx="654.9" cy="292.5" r="14.3"/>
			<circle class="st17" cx="701.2" cy="292.5" r="14.3"/>
			<circle class="st17" cx="747.5" cy="292.5" r="14.3"/>
			<circle class="st17" cx="479.1" cy="255.5" r="14.3"/>
			<circle class="st17" cx="525.3" cy="255.5" r="14.3"/>
			<circle class="st17" cx="571.6" cy="255.5" r="14.3"/>
			<circle class="st17" cx="617.9" cy="255.5" r="14.3"/>
			<circle class="st17" cx="664.2" cy="255.5" r="14.3"/>
			<circle class="st17" cx="710.5" cy="255.5" r="14.3"/>
			<circle class="st17" cx="516.3" cy="218.3" r="14.3"/>
			<circle class="st17" cx="562.6" cy="218.3" r="14.3"/>
			<circle class="st17" cx="608.8" cy="218.3" r="14.3"/>
			<circle class="st17" cx="655.1" cy="218.3" r="14.3"/>
			<circle class="st17" cx="701.4" cy="218.3" r="14.3"/>
			<circle class="st17" cx="747.7" cy="218.3" r="14.3"/>
			<circle class="st17" cx="492.6" cy="181" r="14.3"/>
			<circle class="st17" cx="538.9" cy="181" r="14.3"/>
			<circle class="st17" cx="585.2" cy="181" r="14.3"/>
			<circle class="st17" cx="631.5" cy="181" r="14.3"/>
			<circle class="st17" cx="677.8" cy="181" r="14.3"/>
			<circle class="st17" cx="724.1" cy="181" r="14.3"/>
			<circle class="st17" cx="455.6" cy="144" r="14.3"/>
			<circle class="st17" cx="501.9" cy="144" r="14.3"/>
			<circle class="st17" cx="548.2" cy="144" r="14.3"/>
			<circle class="st17" cx="594.5" cy="144" r="14.3"/>
			<circle class="st17" cx="640.8" cy="144" r="14.3"/>
			<circle class="st17" cx="687.1" cy="144" r="14.3"/>
			<circle class="st17" cx="492.8" cy="106.8" r="14.3"/>
			<circle class="st17" cx="539.1" cy="106.8" r="14.3"/>
			<circle class="st17" cx="585.4" cy="106.8" r="14.3"/>
			<circle class="st17" cx="631.7" cy="106.8" r="14.3"/>
			<circle class="st17" cx="678" cy="106.8" r="14.3"/>
			<circle class="st17" cx="724.3" cy="106.8" r="14.3"/>
			<circle class="st17" cx="455.6" cy="69.6" r="14.3"/>
			<circle class="st17" cx="501.9" cy="69.6" r="14.3"/>
			<circle class="st17" cx="548.2" cy="69.6" r="14.3"/>
			<circle class="st17" cx="594.5" cy="69.6" r="14.3"/>
			<circle class="st17" cx="640.8" cy="69.6" r="14.3"/>
			<circle class="st17" cx="687.1" cy="69.6" r="14.3"/>
			<circle class="st17" cx="492.8" cy="32.4" r="14.3"/>
			<circle class="st17" cx="539.1" cy="32.4" r="14.3"/>
			<circle class="st17" cx="585.4" cy="32.4" r="14.3"/>
			<circle class="st17" cx="631.7" cy="32.4" r="14.3"/>
			<circle class="st17" cx="678" cy="32.4" r="14.3"/>
			<circle class="st17" cx="724.3" cy="32.4" r="14.3"/>
		</g>
	</g>
</g>
<g>
	<defs>
		<path id="SVGID_13_" d="M902.8,80.7c-2-1-3.1-1.5-4.1-2.1C875.3,65,850.2,59,823.2,61.2c-9,0.8-17.8,2.8-25.7,7.5
			c-19.9,11.8-21.7,40.3-2.7,53.6c7.4,5.2,16.2,8.7,24.7,12.2c16,6.6,32.7,11.8,48.4,19c20,9.3,34.7,24.2,40,46.4
			c6.6,28,3.5,54.5-14.9,77.7c-12.2,15.4-28.6,24.9-47.4,29.9c-36.8,9.7-72.5,5.9-107-10c-5.8-2.7-8.2-6.1-7.8-12.7
			c0.6-12.3,0.2-24.7,0.2-37.1c0-1.3,0-2.7,0-4.7c1.7,0.7,2.8,1.1,3.8,1.6c22.3,12.7,46.1,20.5,71.9,21c13.8,0.3,27.1-2.1,39.1-9.6
			c18.6-11.8,22.5-43.9-0.9-56.6c-10.7-5.8-22.4-9.8-33.7-14.4c-11.7-4.7-23.8-8.5-35.1-14c-31.9-15.4-46.4-41.4-44.1-76.8
			c2.3-35.2,20.5-59.1,52.8-71.5c36.3-13.9,72.6-11.9,108.5,2.9c7,2.9,10.4,6.6,9.8,14.9c-0.9,11.7-0.2,23.5-0.2,35.2
			C902.8,77,902.8,78.3,902.8,80.7z"/>
	</defs>
	<clipPath id="SVGID_14_">
		<use xlink:href="#SVGID_13_"  style="overflow:visible;"/>
	</clipPath>
	<line class="st18" x1="817.4" y1="388.3" x2="573.2" y2="164.1"/>
	<line class="st18" x1="826.5" y1="380.3" x2="582.3" y2="156"/>
	<line class="st18" x1="836.7" y1="371.3" x2="592.5" y2="147"/>
	<line class="st18" x1="846.9" y1="362.2" x2="602.7" y2="138"/>
	<line class="st18" x1="857.1" y1="353.2" x2="612.9" y2="128.9"/>
	<line class="st18" x1="867.3" y1="344.2" x2="623.1" y2="119.9"/>
	<line class="st18" x1="877.5" y1="335.1" x2="633.3" y2="110.9"/>
	<line class="st18" x1="887.7" y1="326.1" x2="643.5" y2="101.9"/>
	<line class="st18" x1="897.9" y1="317.1" x2="653.7" y2="92.8"/>
	<line class="st18" x1="908.1" y1="308.1" x2="663.9" y2="83.8"/>
	<line class="st18" x1="918.3" y1="299" x2="674.1" y2="74.8"/>
	<line class="st18" x1="928.5" y1="290" x2="684.3" y2="65.7"/>
	<line class="st18" x1="938.7" y1="281" x2="694.6" y2="56.7"/>
	<line class="st18" x1="948.9" y1="271.9" x2="704.8" y2="47.7"/>
	<line class="st18" x1="959.1" y1="262.9" x2="715" y2="38.7"/>
	<line class="st18" x1="969.4" y1="253.9" x2="725.2" y2="29.6"/>
	<line class="st18" x1="979.6" y1="244.9" x2="735.4" y2="20.6"/>
	<line class="st18" x1="989.8" y1="235.8" x2="745.6" y2="11.6"/>
	<line class="st18" x1="1000" y1="226.8" x2="755.8" y2="2.5"/>
	<line class="st18" x1="1010.2" y1="217.8" x2="766" y2="-6.5"/>
	<line class="st18" x1="1020.4" y1="208.7" x2="776.2" y2="-15.5"/>
	<line class="st18" x1="1030.6" y1="199.7" x2="786.4" y2="-24.5"/>
	<line class="st18" x1="1040.8" y1="190.7" x2="796.6" y2="-33.6"/>
	<line class="st18" x1="1051" y1="181.7" x2="806.8" y2="-42.6"/>
	<line class="st18" x1="1061.2" y1="172.6" x2="817" y2="-51.6"/>
	<line class="st18" x1="1071.4" y1="163.6" x2="827.2" y2="-60.7"/>
	<line class="st18" x1="1081.6" y1="154.6" x2="837.4" y2="-69.7"/>
	<line class="st18" x1="1091.8" y1="145.5" x2="847.6" y2="-78.7"/>
</g>
<g>
	<defs>
		<path id="SVGID_15_" d="M1486.8,18.5c16.3,0,32.1,0,48.3,0c0.1,1.4,0.2,2.7,0.2,4.1c0,62.2,0.1,124.5,0,186.7
			c0,14.8-1.5,29.4-6,43.6c-8.6,27.3-26.4,45.7-53.9,53.7c-30.4,8.8-61.1,8.8-91.1-1.4c-29.2-9.9-45.8-31.6-52-61.2
			c-2.2-10.7-3.6-21.8-3.6-32.7c-0.3-63-0.1-126-0.1-189c0-1.1,0-2.2,0-3.7c16.1,0,32,0,48.5,0c0,1.6,0,3.2,0,4.7
			c0,60.4-0.1,120.7,0.1,181.1c0,9,1.1,18.3,3.2,27c4,16.3,14.7,26.6,31.1,30.7c13.4,3.3,27,3.4,40.5,0.1
			c19.6-4.7,29.9-18,33.2-37.2c1.3-7.5,1.6-15.2,1.7-22.7c0.1-59.6,0.1-119.2,0.1-178.8C1486.8,22,1486.8,20.5,1486.8,18.5z"/>
	</defs>
	<clipPath id="SVGID_16_">
		<use xlink:href="#SVGID_15_"  style="overflow:visible;"/>
	</clipPath>
	
		<rect x="1336.4" y="262.6" transform="matrix(0.7071 0.7071 -0.7071 0.7071 596.1299 -875.9848)" class="st19" width="38.1" height="38.1"/>
	
		<rect x="1396.7" y="262.6" transform="matrix(0.7071 0.7071 -0.7071 0.7071 613.7721 -918.5767)" class="st19" width="38.1" height="38.1"/>
	
		<rect x="1456.9" y="262.6" transform="matrix(0.7071 0.7071 -0.7071 0.7071 631.4142 -961.1686)" class="st19" width="38.1" height="38.1"/>
	
		<rect x="1306.3" y="215.3" transform="matrix(0.7071 0.7071 -0.7071 0.7071 553.9065 -868.5245)" class="st19" width="38.1" height="38.1"/>
	
		<rect x="1366.5" y="215.3" transform="matrix(0.7071 0.7071 -0.7071 0.7071 571.5486 -911.1165)" class="st19" width="38.1" height="38.1"/>
	
		<rect x="1426.8" y="215.3" transform="matrix(0.7071 0.7071 -0.7071 0.7071 589.1908 -953.7084)" class="st19" width="38.1" height="38.1"/>
	
		<rect x="1487" y="215.3" transform="matrix(0.7071 0.7071 -0.7071 0.7071 606.8329 -996.3003)" class="st19" width="38.1" height="38.1"/>
	
		<rect x="1336.4" y="170.4" transform="matrix(0.7071 0.7071 -0.7071 0.7071 530.9414 -902.9868)" class="st19" width="38.1" height="38.1"/>
	
		<rect x="1396.7" y="170.4" transform="matrix(0.7071 0.7071 -0.7071 0.7071 548.5836 -945.5787)" class="st19" width="38.1" height="38.1"/>
	
		<rect x="1456.9" y="170.4" transform="matrix(0.7071 0.7071 -0.7071 0.7071 566.2257 -988.1706)" class="st19" width="38.1" height="38.1"/>
	
		<rect x="1517.1" y="170.4" transform="matrix(0.7071 0.7071 -0.7071 0.7071 583.8679 -1030.7625)" class="st19" width="38.1" height="38.1"/>
	
		<rect x="1306.3" y="123.1" transform="matrix(0.7071 0.7071 -0.7071 0.7071 488.718 -895.5266)" class="st19" width="38.1" height="38.1"/>
	
		<rect x="1366.5" y="123.1" transform="matrix(0.7071 0.7071 -0.7071 0.7071 506.3601 -938.1184)" class="st19" width="38.1" height="38.1"/>
	
		<rect x="1426.8" y="123.1" transform="matrix(0.7071 0.7071 -0.7071 0.7071 524.0023 -980.7103)" class="st19" width="38.1" height="38.1"/>
	
		<rect x="1487" y="123.1" transform="matrix(0.7071 0.7071 -0.7071 0.7071 541.6444 -1023.3022)" class="st19" width="38.1" height="38.1"/>
	
		<rect x="1336.4" y="78.2" transform="matrix(0.7071 0.7071 -0.7071 0.7071 465.7529 -929.9887)" class="st19" width="38.1" height="38.1"/>
	
		<rect x="1396.7" y="78.2" transform="matrix(0.7071 0.7071 -0.7071 0.7071 483.3951 -972.5806)" class="st19" width="38.1" height="38.1"/>
	
		<rect x="1456.9" y="78.2" transform="matrix(0.7071 0.7071 -0.7071 0.7071 501.0372 -1015.1725)" class="st19" width="38.1" height="38.1"/>
	
		<rect x="1517.1" y="78.2" transform="matrix(0.7071 0.7071 -0.7071 0.7071 518.6794 -1057.7645)" class="st19" width="38.1" height="38.1"/>
	
		<rect x="1306.3" y="30.9" transform="matrix(0.7071 0.7071 -0.7071 0.7071 423.5295 -922.5285)" class="st19" width="38.1" height="38.1"/>
	
		<rect x="1366.5" y="30.9" transform="matrix(0.7071 0.7071 -0.7071 0.7071 441.1716 -965.1204)" class="st19" width="38.1" height="38.1"/>
	
		<rect x="1426.8" y="30.9" transform="matrix(0.7071 0.7071 -0.7071 0.7071 458.8138 -1007.7123)" class="st19" width="38.1" height="38.1"/>
	
		<rect x="1487" y="30.9" transform="matrix(0.7071 0.7071 -0.7071 0.7071 476.4559 -1050.3042)" class="st19" width="38.1" height="38.1"/>
</g>
<g>
	<defs>
		<path id="SVGID_17_" d="M1747.2,80.5c-1.9-0.9-3-1.3-4-1.9c-23.3-13.6-48.4-19.7-75.4-17.4c-9,0.7-17.8,2.8-25.7,7.5
			c-20.1,12-21.8,40.4-2.6,53.8c7.4,5.1,16,8.6,24.4,12c12.8,5.2,26.1,9.4,39,14.4c11.1,4.4,21.3,10.4,30.2,18.6
			c13.9,12.8,20.5,29,21.9,47.5c2,24.6-3.3,47-20.1,65.8c-13.7,15.4-31.4,24.3-51.2,28.5c-34.7,7.3-68.3,3.3-100.5-11.7
			c-5.8-2.7-8.2-6-7.9-12.7c0.6-13.7,0.2-27.5,0.2-41.8c1.5,0.6,2.7,0.9,3.7,1.5c22.3,12.7,46.1,20.5,71.9,21
			c13.6,0.3,26.8-2,38.8-9.3c19-11.6,23.1-44.1-0.7-57.1c-9.3-5.1-19.3-8.7-29.1-12.6c-13.2-5.3-26.8-9.7-39.7-15.6
			c-17.8-8.2-32-20.8-38.7-39.8c-12.2-34.6-7.6-87.3,48-108.5c36.9-14.1,73.9-11.9,110.2,4c5.7,2.5,8.2,5.7,7.8,12.4
			c-0.7,12.3-0.2,24.7-0.2,37.1C1747.2,77.1,1747.2,78.3,1747.2,80.5z"/>
	</defs>
	<clipPath id="SVGID_18_">
		<use xlink:href="#SVGID_17_"  style="overflow:visible;"/>
	</clipPath>
	<rect x="1553.7" y="287.9" class="st20" width="17.7" height="17.7"/>
	<rect x="1589.5" y="287.9" class="st20" width="17.7" height="17.7"/>
	<rect x="1625.3" y="287.9" class="st20" width="17.7" height="17.7"/>
	<rect x="1661.1" y="287.9" class="st20" width="17.7" height="17.7"/>
	<rect x="1697" y="287.9" class="st20" width="17.7" height="17.7"/>
	<rect x="1732.8" y="287.9" class="st20" width="17.7" height="17.7"/>
	<rect x="1768.6" y="287.9" class="st20" width="17.7" height="17.7"/>
	<rect x="1535.2" y="258.2" class="st20" width="17.7" height="17.7"/>
	<rect x="1571" y="258.2" class="st20" width="17.7" height="17.7"/>
	<rect x="1606.8" y="258.2" class="st20" width="17.7" height="17.7"/>
	<rect x="1642.6" y="258.2" class="st20" width="17.7" height="17.7"/>
	<rect x="1678.5" y="258.2" class="st20" width="17.7" height="17.7"/>
	<rect x="1714.3" y="258.2" class="st20" width="17.7" height="17.7"/>
	<rect x="1750.1" y="258.2" class="st20" width="17.7" height="17.7"/>
	<rect x="1553.7" y="228.5" class="st20" width="17.7" height="17.7"/>
	<rect x="1589.5" y="228.5" class="st20" width="17.7" height="17.7"/>
	<rect x="1625.3" y="228.5" class="st20" width="17.7" height="17.7"/>
	<rect x="1661.1" y="228.5" class="st20" width="17.7" height="17.7"/>
	<rect x="1697" y="228.5" class="st20" width="17.7" height="17.7"/>
	<rect x="1732.8" y="228.5" class="st20" width="17.7" height="17.7"/>
	<rect x="1768.6" y="228.5" class="st20" width="17.7" height="17.7"/>
	<rect x="1535.2" y="198.8" class="st20" width="17.7" height="17.7"/>
	<rect x="1571" y="198.8" class="st20" width="17.7" height="17.7"/>
	<rect x="1606.8" y="198.8" class="st20" width="17.7" height="17.7"/>
	<rect x="1642.6" y="198.8" class="st20" width="17.7" height="17.7"/>
	<rect x="1678.5" y="198.8" class="st20" width="17.7" height="17.7"/>
	<rect x="1714.3" y="198.8" class="st20" width="17.7" height="17.7"/>
	<rect x="1750.1" y="198.8" class="st20" width="17.7" height="17.7"/>
	<rect x="1553.7" y="169" class="st20" width="17.7" height="17.7"/>
	<rect x="1589.5" y="169" class="st20" width="17.7" height="17.7"/>
	<rect x="1625.3" y="169" class="st20" width="17.7" height="17.7"/>
	<rect x="1661.1" y="169" class="st20" width="17.7" height="17.7"/>
	<rect x="1697" y="169" class="st20" width="17.7" height="17.7"/>
	<rect x="1732.8" y="169" class="st20" width="17.7" height="17.7"/>
	<rect x="1768.6" y="169" class="st20" width="17.7" height="17.7"/>
	<rect x="1535.2" y="139.3" class="st20" width="17.7" height="17.7"/>
	<rect x="1571" y="139.3" class="st20" width="17.7" height="17.7"/>
	<rect x="1606.8" y="139.3" class="st20" width="17.7" height="17.7"/>
	<rect x="1642.6" y="139.3" class="st20" width="17.7" height="17.7"/>
	<rect x="1678.5" y="139.3" class="st20" width="17.7" height="17.7"/>
	<rect x="1714.3" y="139.3" class="st20" width="17.7" height="17.7"/>
	<rect x="1750.1" y="139.3" class="st20" width="17.7" height="17.7"/>
	<rect x="1553.7" y="109.6" class="st20" width="17.7" height="17.7"/>
	<rect x="1589.5" y="109.6" class="st20" width="17.7" height="17.7"/>
	<rect x="1625.3" y="109.6" class="st20" width="17.7" height="17.7"/>
	<rect x="1661.1" y="109.6" class="st20" width="17.7" height="17.7"/>
	<rect x="1697" y="109.6" class="st20" width="17.7" height="17.7"/>
	<rect x="1732.8" y="109.6" class="st20" width="17.7" height="17.7"/>
	<rect x="1768.6" y="109.6" class="st20" width="17.7" height="17.7"/>
	<rect x="1535.2" y="79.9" class="st20" width="17.7" height="17.7"/>
	<rect x="1571" y="79.9" class="st20" width="17.7" height="17.7"/>
	<rect x="1606.8" y="79.9" class="st20" width="17.7" height="17.7"/>
	<rect x="1642.6" y="79.9" class="st20" width="17.7" height="17.7"/>
	<rect x="1678.5" y="79.9" class="st20" width="17.7" height="17.7"/>
	<rect x="1714.3" y="79.9" class="st20" width="17.7" height="17.7"/>
	<rect x="1750.1" y="79.9" class="st20" width="17.7" height="17.7"/>
	<rect x="1553.7" y="50.2" class="st20" width="17.7" height="17.7"/>
	<rect x="1589.5" y="50.2" class="st20" width="17.7" height="17.7"/>
	<rect x="1625.3" y="50.2" class="st20" width="17.7" height="17.7"/>
	<rect x="1661.1" y="50.2" class="st20" width="17.7" height="17.7"/>
	<rect x="1697" y="50.2" class="st20" width="17.7" height="17.7"/>
	<rect x="1732.8" y="50.2" class="st20" width="17.7" height="17.7"/>
	<rect x="1768.6" y="50.2" class="st20" width="17.7" height="17.7"/>
	<rect x="1535.2" y="20.5" class="st20" width="17.7" height="17.7"/>
	<rect x="1571" y="20.5" class="st20" width="17.7" height="17.7"/>
	<rect x="1606.8" y="20.5" class="st20" width="17.7" height="17.7"/>
	<rect x="1642.6" y="20.5" class="st20" width="17.7" height="17.7"/>
	<rect x="1678.5" y="20.5" class="st20" width="17.7" height="17.7"/>
	<rect x="1714.3" y="20.5" class="st20" width="17.7" height="17.7"/>
	<rect x="1750.1" y="20.5" class="st20" width="17.7" height="17.7"/>
</g>
<g>
	<defs>
		<path id="SVGID_19_" d="M1802.4,18.6c55.6,0,111,0,166.7,0c0,15.4,0,30.6,0,46.2c-39.4,0-78.7,0-118.3,0c0,23.3,0,46.3,0,69.6
			c37.8,0,75.6,0,113.6,0c0,15.7,0,30.9,0,46.5c-37.9,0-75.6,0-113.6,0c0,26.9,0,53.4,0,80.3c39.4,0,78.7,0,118.3,0
			c0,15.6,0,30.8,0,46.3c-55.5,0-110.9,0-166.7,0C1802.4,211.3,1802.4,115.1,1802.4,18.6z"/>
	</defs>
	<clipPath id="SVGID_20_">
		<use xlink:href="#SVGID_19_"  style="overflow:visible;"/>
	</clipPath>
	<line class="st21" x1="1807.8" y1="-28.6" x2="1807.8" y2="359.4"/>
	<line class="st21" x1="1830" y1="-28.6" x2="1830" y2="359.4"/>
	<line class="st21" x1="1852.3" y1="-28.6" x2="1852.3" y2="359.4"/>
	<line class="st21" x1="1874.6" y1="-28.6" x2="1874.6" y2="359.4"/>
	<line class="st21" x1="1896.9" y1="-28.6" x2="1896.9" y2="359.4"/>
	<line class="st21" x1="1919.2" y1="-28.6" x2="1919.2" y2="359.4"/>
	<line class="st21" x1="1941.5" y1="-28.6" x2="1941.5" y2="359.4"/>
	<line class="st21" x1="1963.8" y1="-28.6" x2="1963.8" y2="359.4"/>
</g>
<g>
	<defs>
		<path id="SVGID_21_" d="M2011.8,18.5c16.4,0,32.2,0,48.5,0c0,1.8,0,3.4,0,5c0,60.4-0.1,120.7,0.1,181.1c0,7.7,0.7,15.5,2.2,23.1
			c3.9,19.7,16.1,31.7,35.9,35.4c11.2,2.1,22.4,2.2,33.5,0c20.6-4.1,32.8-16.6,36.2-37.3c1.2-7.5,1.7-15.2,1.8-22.7
			c0.1-59.9,0.1-119.7,0.1-179.6c0-1.5,0-3,0-4.7c16.2,0,32.1,0,48.5,0c0,1.6,0,3,0,4.5c0,62.2,0.1,124.5,0,186.7
			c0,13.9-1.5,27.7-5.4,41.1c-8.3,28.3-26.2,47.5-54.6,55.7c-29.7,8.7-59.8,8.6-89.4-0.9c-30.1-9.7-47.3-31.5-53.6-61.9
			c-2.3-11.2-3.6-22.8-3.6-34.2c-0.3-62.1-0.2-124.2-0.2-186.3C2011.8,21.8,2011.8,20.4,2011.8,18.5z"/>
	</defs>
	<clipPath id="SVGID_22_">
		<use xlink:href="#SVGID_21_"  style="overflow:visible;"/>
	</clipPath>
	<polygon class="st22" points="1991.4,290.1 1998.3,302.1 2005.2,314 1991.4,314 1977.6,314 1984.5,302.1 	"/>
	<polygon class="st22" points="2034.2,290.1 2041.1,302.1 2048.1,314 2034.2,314 2020.4,314 2027.3,302.1 	"/>
	<polygon class="st22" points="2077.1,290.1 2084,302.1 2090.9,314 2077.1,314 2063.3,314 2070.2,302.1 	"/>
	<polygon class="st22" points="2119.9,290.1 2126.9,302.1 2133.8,314 2119.9,314 2106.1,314 2113,302.1 	"/>
	<polygon class="st22" points="2162.8,290.1 2169.7,302.1 2176.6,314 2162.8,314 2149,314 2155.9,302.1 	"/>
	<polygon class="st22" points="2205.7,290.1 2212.6,302.1 2219.5,314 2205.7,314 2191.8,314 2198.8,302.1 	"/>
	<polygon class="st22" points="2248.5,290.1 2255.4,302.1 2262.3,314 2248.5,314 2234.7,314 2241.6,302.1 	"/>
	<polygon class="st22" points="1969.7,259.8 1976.6,271.8 1983.5,283.8 1969.7,283.8 1955.8,283.8 1962.8,271.8 	"/>
	<polygon class="st22" points="2012.5,259.8 2019.4,271.8 2026.3,283.8 2012.5,283.8 1998.7,283.8 2005.6,271.8 	"/>
	<polygon class="st22" points="2055.4,259.8 2062.3,271.8 2069.2,283.8 2055.4,283.8 2041.6,283.8 2048.5,271.8 	"/>
	<polygon class="st22" points="2098.2,259.8 2105.1,271.8 2112.1,283.8 2098.2,283.8 2084.4,283.8 2091.3,271.8 	"/>
	<polygon class="st22" points="2141.1,259.8 2148,271.8 2154.9,283.8 2141.1,283.8 2127.3,283.8 2134.2,271.8 	"/>
	<polygon class="st22" points="2183.9,259.8 2190.9,271.8 2197.8,283.8 2183.9,283.8 2170.1,283.8 2177,271.8 	"/>
	<polygon class="st22" points="2226.8,259.8 2233.7,271.8 2240.6,283.8 2226.8,283.8 2213,283.8 2219.9,271.8 	"/>
	<polygon class="st22" points="1991.4,229.5 1998.3,241.5 2005.2,253.5 1991.4,253.5 1977.6,253.5 1984.5,241.5 	"/>
	<polygon class="st22" points="2034.2,229.5 2041.1,241.5 2048.1,253.5 2034.2,253.5 2020.4,253.5 2027.3,241.5 	"/>
	<polygon class="st22" points="2077.1,229.5 2084,241.5 2090.9,253.5 2077.1,253.5 2063.3,253.5 2070.2,241.5 	"/>
	<polygon class="st22" points="2119.9,229.5 2126.9,241.5 2133.8,253.5 2119.9,253.5 2106.1,253.5 2113,241.5 	"/>
	<polygon class="st22" points="2162.8,229.5 2169.7,241.5 2176.6,253.5 2162.8,253.5 2149,253.5 2155.9,241.5 	"/>
	<polygon class="st22" points="2205.7,229.5 2212.6,241.5 2219.5,253.5 2205.7,253.5 2191.8,253.5 2198.8,241.5 	"/>
	<polygon class="st22" points="2248.5,229.5 2255.4,241.5 2262.3,253.5 2248.5,253.5 2234.7,253.5 2241.6,241.5 	"/>
	<polygon class="st22" points="1969.7,199.2 1976.6,211.2 1983.5,223.2 1969.7,223.2 1955.8,223.2 1962.8,211.2 	"/>
	<polygon class="st22" points="2012.5,199.2 2019.4,211.2 2026.3,223.2 2012.5,223.2 1998.7,223.2 2005.6,211.2 	"/>
	<polygon class="st22" points="2055.4,199.2 2062.3,211.2 2069.2,223.2 2055.4,223.2 2041.6,223.2 2048.5,211.2 	"/>
	<polygon class="st22" points="2098.2,199.2 2105.1,211.2 2112.1,223.2 2098.2,223.2 2084.4,223.2 2091.3,211.2 	"/>
	<polygon class="st22" points="2141.1,199.2 2148,211.2 2154.9,223.2 2141.1,223.2 2127.3,223.2 2134.2,211.2 	"/>
	<polygon class="st22" points="2183.9,199.2 2190.9,211.2 2197.8,223.2 2183.9,223.2 2170.1,223.2 2177,211.2 	"/>
	<polygon class="st22" points="2226.8,199.2 2233.7,211.2 2240.6,223.2 2226.8,223.2 2213,223.2 2219.9,211.2 	"/>
	<polygon class="st22" points="1991.4,169 1998.3,180.9 2005.2,192.9 1991.4,192.9 1977.6,192.9 1984.5,180.9 	"/>
	<polygon class="st22" points="2034.2,169 2041.1,180.9 2048.1,192.9 2034.2,192.9 2020.4,192.9 2027.3,180.9 	"/>
	<polygon class="st22" points="2077.1,169 2084,180.9 2090.9,192.9 2077.1,192.9 2063.3,192.9 2070.2,180.9 	"/>
	<polygon class="st22" points="2119.9,169 2126.9,180.9 2133.8,192.9 2119.9,192.9 2106.1,192.9 2113,180.9 	"/>
	<polygon class="st22" points="2162.8,169 2169.7,180.9 2176.6,192.9 2162.8,192.9 2149,192.9 2155.9,180.9 	"/>
	<polygon class="st22" points="2205.7,169 2212.6,180.9 2219.5,192.9 2205.7,192.9 2191.8,192.9 2198.8,180.9 	"/>
	<polygon class="st22" points="2248.5,169 2255.4,180.9 2262.3,192.9 2248.5,192.9 2234.7,192.9 2241.6,180.9 	"/>
	<polygon class="st22" points="1969.7,138.7 1976.6,150.6 1983.5,162.6 1969.7,162.6 1955.8,162.6 1962.8,150.6 	"/>
	<polygon class="st22" points="2012.5,138.7 2019.4,150.6 2026.3,162.6 2012.5,162.6 1998.7,162.6 2005.6,150.6 	"/>
	<polygon class="st22" points="2055.4,138.7 2062.3,150.6 2069.2,162.6 2055.4,162.6 2041.6,162.6 2048.5,150.6 	"/>
	<polygon class="st22" points="2098.2,138.7 2105.1,150.6 2112.1,162.6 2098.2,162.6 2084.4,162.6 2091.3,150.6 	"/>
	<polygon class="st22" points="2141.1,138.7 2148,150.6 2154.9,162.6 2141.1,162.6 2127.3,162.6 2134.2,150.6 	"/>
	<polygon class="st22" points="2183.9,138.7 2190.9,150.6 2197.8,162.6 2183.9,162.6 2170.1,162.6 2177,150.6 	"/>
	<polygon class="st22" points="2226.8,138.7 2233.7,150.6 2240.6,162.6 2226.8,162.6 2213,162.6 2219.9,150.6 	"/>
	<polygon class="st22" points="1991.4,108.4 1998.3,120.4 2005.2,132.3 1991.4,132.3 1977.6,132.3 1984.5,120.4 	"/>
	<polygon class="st22" points="2034.2,108.4 2041.1,120.4 2048.1,132.3 2034.2,132.3 2020.4,132.3 2027.3,120.4 	"/>
	<polygon class="st22" points="2077.1,108.4 2084,120.4 2090.9,132.3 2077.1,132.3 2063.3,132.3 2070.2,120.4 	"/>
	<polygon class="st22" points="2119.9,108.4 2126.9,120.4 2133.8,132.3 2119.9,132.3 2106.1,132.3 2113,120.4 	"/>
	<polygon class="st22" points="2162.8,108.4 2169.7,120.4 2176.6,132.3 2162.8,132.3 2149,132.3 2155.9,120.4 	"/>
	<polygon class="st22" points="2205.7,108.4 2212.6,120.4 2219.5,132.3 2205.7,132.3 2191.8,132.3 2198.8,120.4 	"/>
	<polygon class="st22" points="2248.5,108.4 2255.4,120.4 2262.3,132.3 2248.5,132.3 2234.7,132.3 2241.6,120.4 	"/>
	<polygon class="st22" points="1969.7,78.1 1976.6,90.1 1983.5,102 1969.7,102 1955.8,102 1962.8,90.1 	"/>
	<polygon class="st22" points="2012.5,78.1 2019.4,90.1 2026.3,102 2012.5,102 1998.7,102 2005.6,90.1 	"/>
	<polygon class="st22" points="2055.4,78.1 2062.3,90.1 2069.2,102 2055.4,102 2041.6,102 2048.5,90.1 	"/>
	<polygon class="st22" points="2098.2,78.1 2105.1,90.1 2112.1,102 2098.2,102 2084.4,102 2091.3,90.1 	"/>
	<polygon class="st22" points="2141.1,78.1 2148,90.1 2154.9,102 2141.1,102 2127.3,102 2134.2,90.1 	"/>
	<polygon class="st22" points="2183.9,78.1 2190.9,90.1 2197.8,102 2183.9,102 2170.1,102 2177,90.1 	"/>
	<polygon class="st22" points="2226.8,78.1 2233.7,90.1 2240.6,102 2226.8,102 2213,102 2219.9,90.1 	"/>
	<polygon class="st22" points="1991.4,47.8 1998.3,59.8 2005.2,71.8 1991.4,71.8 1977.6,71.8 1984.5,59.8 	"/>
	<polygon class="st22" points="2034.2,47.8 2041.1,59.8 2048.1,71.8 2034.2,71.8 2020.4,71.8 2027.3,59.8 	"/>
	<polygon class="st22" points="2077.1,47.8 2084,59.8 2090.9,71.8 2077.1,71.8 2063.3,71.8 2070.2,59.8 	"/>
	<polygon class="st22" points="2119.9,47.8 2126.9,59.8 2133.8,71.8 2119.9,71.8 2106.1,71.8 2113,59.8 	"/>
	<polygon class="st22" points="2162.8,47.8 2169.7,59.8 2176.6,71.8 2162.8,71.8 2149,71.8 2155.9,59.8 	"/>
	<polygon class="st22" points="2205.7,47.8 2212.6,59.8 2219.5,71.8 2205.7,71.8 2191.8,71.8 2198.8,59.8 	"/>
	<polygon class="st22" points="2248.5,47.8 2255.4,59.8 2262.3,71.8 2248.5,71.8 2234.7,71.8 2241.6,59.8 	"/>
	<polygon class="st22" points="1969.7,17.5 1976.6,29.5 1983.5,41.5 1969.7,41.5 1955.8,41.5 1962.8,29.5 	"/>
	<polygon class="st22" points="2012.5,17.5 2019.4,29.5 2026.3,41.5 2012.5,41.5 1998.7,41.5 2005.6,29.5 	"/>
	<polygon class="st22" points="2055.4,17.5 2062.3,29.5 2069.2,41.5 2055.4,41.5 2041.6,41.5 2048.5,29.5 	"/>
	<polygon class="st22" points="2098.2,17.5 2105.1,29.5 2112.1,41.5 2098.2,41.5 2084.4,41.5 2091.3,29.5 	"/>
	<polygon class="st22" points="2141.1,17.5 2148,29.5 2154.9,41.5 2141.1,41.5 2127.3,41.5 2134.2,29.5 	"/>
	<polygon class="st22" points="2183.9,17.5 2190.9,29.5 2197.8,41.5 2183.9,41.5 2170.1,41.5 2177,29.5 	"/>
	<polygon class="st22" points="2226.8,17.5 2233.7,29.5 2240.6,41.5 2226.8,41.5 2213,41.5 2219.9,29.5 	"/>
</g>
</svg>
