<?xml version="1.0" encoding="utf-8"?>
<!-- Generator: Adobe Illustrator 25.2.3, SVG Export Plug-In . SVG Version: 6.00 Build 0)  -->
<svg version="1.1" id="Laag_1" xmlns="http://www.w3.org/2000/svg" xmlns:xlink="http://www.w3.org/1999/xlink" x="0px" y="0px"
	 viewBox="0 0 50 50" style="enable-background:new 0 0 50 50;" xml:space="preserve">
<style type="text/css">
	.st0{fill:none;stroke:#C6F2F4;stroke-linecap:round;stroke-miterlimit:10;}
</style>
<image style="overflow:visible;" width="50px" height="50px" xlink:href="38A18B29.jpg"  transform="matrix(0.1321 0 0 0.1321 -1272.0476 -278.7619)">
</image>
<line class="st0" x1="25" y1="1.2" x2="25" y2="48.8"/>
<polyline class="st0" points="30.8,3.1 25,9.8 19.2,3.1 "/>
<polyline class="st0" points="19.2,46.9 25,40.2 30.8,46.9 "/>
<line class="st0" x1="40.8" y1="8.8" x2="9.3" y2="41.2"/>
<polyline class="st0" points="43.3,14 35.1,14.6 35.7,6.2 "/>
<polyline class="st0" points="6.7,36 14.9,35.4 14.3,43.8 "/>
<line class="st0" x1="40.7" y1="41.2" x2="9.2" y2="8.8"/>
<polyline class="st0" points="35.7,43.8 35.1,35.4 43.3,36 "/>
<polyline class="st0" points="14.3,6.2 14.9,14.6 6.7,14 "/>
<line class="st0" x1="46.5" y1="25" x2="3.5" y2="25"/>
<polyline class="st0" points="44.8,30.8 38.8,25 44.8,19.2 "/>
<polyline class="st0" points="5.2,19.2 11.2,25 5.2,30.8 "/>
</svg>
